<svg xmlns="http://www.w3.org/2000/svg" xmlns:xlink="http://www.w3.org/1999/xlink" width="653.021" height="604.012" viewBox="0 0 653.021 604.012">
  <defs>
    <linearGradient id="linear-gradient" x1="0.5" x2="0.5" y2="1" gradientUnits="objectBoundingBox">
      <stop offset="0" stop-color="#fbd15b"/>
      <stop offset="0.371" stop-color="#ff8578"/>
      <stop offset="1" stop-color="#4333f1"/>
    </linearGradient>
    <linearGradient id="linear-gradient-2" x1="0.5" y1="1.62" x2="0.5" y2="0" xlink:href="#linear-gradient"/>
    <linearGradient id="linear-gradient-3" x1="0.5" y1="1.565" x2="0.5" y2="0" xlink:href="#linear-gradient"/>
    <linearGradient id="linear-gradient-4" x1="0.649" y1="0.966" x2="0.377" y2="0.036" xlink:href="#linear-gradient"/>
    <linearGradient id="linear-gradient-5" x1="0.233" y1="0.924" x2="0.809" y2="0.072" xlink:href="#linear-gradient"/>
    <linearGradient id="linear-gradient-6" x1="0.233" y1="0.924" x2="0.809" y2="0.072" xlink:href="#linear-gradient"/>
    <linearGradient id="linear-gradient-7" x1="0.5" y1="1.807" x2="0.5" y2="0.133" xlink:href="#linear-gradient"/>
    <linearGradient id="linear-gradient-8" x1="0.644" y1="0.967" x2="0.381" y2="0.035" gradientUnits="objectBoundingBox">
      <stop offset="0" stop-color="#fff"/>
      <stop offset="1" stop-color="#bee1f4"/>
    </linearGradient>
    <linearGradient id="linear-gradient-9" x1="0.218" y1="0.901" x2="0.77" y2="0.102" xlink:href="#linear-gradient-8"/>
    <linearGradient id="linear-gradient-10" x1="0.359" y1="0.006" x2="0.818" y2="0.957" gradientUnits="objectBoundingBox">
      <stop offset="0" stop-color="#26e6ff"/>
      <stop offset="0.486" stop-color="#4189ff"/>
      <stop offset="0.835" stop-color="#534cff"/>
      <stop offset="1" stop-color="#5a35ff"/>
    </linearGradient>
    <linearGradient id="linear-gradient-11" x1="0.641" y1="0.006" x2="0.182" y2="0.957" xlink:href="#linear-gradient-10"/>
    <linearGradient id="linear-gradient-12" x1="0.606" y1="0" x2="0.395" y2="1.021" xlink:href="#linear-gradient-10"/>
    <linearGradient id="linear-gradient-13" x1="0.394" y1="0" x2="0.605" y2="1.021" xlink:href="#linear-gradient-10"/>
    <linearGradient id="linear-gradient-14" x1="0.394" y1="0" x2="0.605" y2="1.021" xlink:href="#linear-gradient-10"/>
    <linearGradient id="linear-gradient-15" x1="0.605" y1="0" x2="0.394" y2="1.021" xlink:href="#linear-gradient-10"/>
    <linearGradient id="linear-gradient-16" x1="0.5" x2="0.5" y2="1" gradientUnits="objectBoundingBox">
      <stop offset="0" stop-color="#435df1"/>
      <stop offset="0.327" stop-color="#4333f1"/>
      <stop offset="1" stop-color="#4c008c"/>
    </linearGradient>
    <linearGradient id="linear-gradient-17" x1="0.5" y1="0" x2="0.5" y2="1" xlink:href="#linear-gradient-16"/>
    <linearGradient id="linear-gradient-18" x1="0.5" y1="0" x2="0.5" y2="1" xlink:href="#linear-gradient-16"/>
    <linearGradient id="linear-gradient-19" x1="0.5" y1="0" x2="0.5" y2="1" xlink:href="#linear-gradient-16"/>
    <linearGradient id="linear-gradient-23" x1="0.5" y1="0" x2="0.5" y2="1" xlink:href="#linear-gradient-16"/>
    <linearGradient id="linear-gradient-26" x1="0.5" y1="1" x2="0.5" gradientUnits="objectBoundingBox">
      <stop offset="0" stop-color="#f9fbfc"/>
      <stop offset="1" stop-color="#bee1f4"/>
    </linearGradient>
    <linearGradient id="linear-gradient-27" x1="0.5" y1="1" x2="0.5" y2="0" xlink:href="#linear-gradient-26"/>
    <linearGradient id="linear-gradient-28" x1="0.5" x2="0.5" y2="0.714" gradientUnits="objectBoundingBox">
      <stop offset="0" stop-color="#ff697d"/>
      <stop offset="1" stop-color="#de2276"/>
    </linearGradient>
    <linearGradient id="linear-gradient-29" x1="0.5" x2="0.5" y2="1.281" gradientUnits="objectBoundingBox">
      <stop offset="0" stop-color="#682692"/>
      <stop offset="1" stop-color="#291d7a"/>
    </linearGradient>
    <linearGradient id="linear-gradient-30" x1="0.5" x2="0.5" y2="1.281" xlink:href="#linear-gradient-29"/>
    <linearGradient id="linear-gradient-31" x1="0.5" x2="0.5" y2="1" gradientUnits="objectBoundingBox">
      <stop offset="0" stop-color="#682692"/>
      <stop offset="0.036" stop-color="#632590"/>
      <stop offset="0.258" stop-color="#4a2286"/>
      <stop offset="0.489" stop-color="#371f7f"/>
      <stop offset="0.73" stop-color="#2d1e7b"/>
      <stop offset="1" stop-color="#291d7a"/>
    </linearGradient>
    <linearGradient id="linear-gradient-32" x1="0.5" x2="0.5" y2="1.023" xlink:href="#linear-gradient-28"/>
    <linearGradient id="linear-gradient-33" x1="0.5" x2="0.5" y2="0.486" xlink:href="#linear-gradient-29"/>
    <linearGradient id="linear-gradient-34" x1="0.5" x2="0.5" y2="1" xlink:href="#linear-gradient-29"/>
    <linearGradient id="linear-gradient-35" x1="0.5" x2="0.5" y2="1" xlink:href="#linear-gradient-29"/>
    <linearGradient id="linear-gradient-37" x1="0.236" y1="1.005" x2="0.788" y2="0" xlink:href="#linear-gradient-8"/>
    <linearGradient id="linear-gradient-38" x1="0.5" y1="1" x2="0.5" y2="0" xlink:href="#linear-gradient-8"/>
  </defs>
  <g id="Group" transform="translate(0.015 0.007)">
    <path id="Vector" d="M81.467,133.024c44.957-37.635-6.631-71.383,18.81-105.852C124.417-5.542,191.335-.134,226.1,1.089,267.83,2.562,464.837-.73,488.444,22.171c21.177,20.534,24.406,55.1,19.547,78.108-7.023,33.278,25.974,33.278,43.5,55.442,38.107,48.185-12.916,103.3-1.113,144.35,15.456,53.828,65.429,86.494,21.679,137.939-23.45,27.556-49.33,36.178-86.041,41.147-62.168,8.417-131.406,6.427-194.467,6.568A835.749,835.749,0,0,1,107.66,465.034C68.237,455.911-8.054,449.453.692,391.565,5.928,356.877,56.324,281.481,29.284,228.86,13.029,197.213,44.081,164.327,81.467,133.024Z" transform="translate(34.216 -0.007)" fill="#e6f3f9"/>
    <path id="Vector-2" data-name="Vector" d="M526.384,129.522c-55.3-19.453-8.183-67.888-33.623-102.357C468.621-5.549,401.719-.125,366.951,1.082c-41.728,1.473-85.273,2.3-126.531,8.5-30.724,4.608-84.835,7.085-108.441,29.986C110.8,60.1,121.727,75.177,126.367,98.219c9.468,47.072-63.14,67.7-92.045,93.814-38.953,35.206,5.972,65.1-5.831,106.15C13.035,352.011-22.767,386.527,21,437.972c23.45,27.556,49.33,36.178,86.042,41.147,62.168,8.417,131.406,6.427,194.467,6.568A835.749,835.749,0,0,0,485.393,465c39.423-9.123,115.715-15.581,106.968-73.468-5.236-34.689-36.868-52.323-53.327-78.939-19.249-31.13-.846-63.985,11.615-93.109C564.632,186.782,556.136,140.259,526.384,129.522Z" transform="translate(34.21 0)" fill="url(#linear-gradient)"/>
    <g id="Group-2" data-name="Group">
      <path id="Vector-3" data-name="Vector" d="M23.748,70.979c15.55-2.963,26.773,8.715,27.51,9.452.69-2.4,7.461-24.437,29.454-32.243a46.749,46.749,0,0,1,30.363,0,21.7,21.7,0,0,1,26.6-28.5A42.9,42.9,0,0,1,215.5,32.967a21.574,21.574,0,0,1,38.969,5.69,39.755,39.755,0,0,1,67.043,16.8A40.5,40.5,0,0,1,358.634,48.3c19.312,6.082,31.476,26.585,27.275,47.322H322.44l-26.381,38.372H0C2.336,83.049,11.913,73.189,23.748,70.979Z" transform="translate(17.243 205.306)" fill="url(#linear-gradient-2)"/>
      <path id="Vector-4" data-name="Vector" d="M23.764,70.979c15.55-2.963,26.773,8.715,27.51,9.452.69-2.4,7.461-24.437,29.454-32.243a46.749,46.749,0,0,1,30.363,0,21.7,21.7,0,0,1,26.6-28.5,42.9,42.9,0,0,1,77.828,13.277,21.574,21.574,0,0,1,38.969,5.69,39.755,39.755,0,0,1,67.043,16.8A40.5,40.5,0,0,1,358.65,48.3c19.312,6.082,31.476,26.585,27.275,47.322H0C2.336,83.064,11.913,73.2,23.764,70.979Z" transform="translate(235.631 210.604)" fill="url(#linear-gradient-3)"/>
      <g id="Group-3" data-name="Group">
        <g id="Group-4" data-name="Group">
          <path id="Vector-5" data-name="Vector" d="M56.64,57.823s28.325-30.143,19.829-37.7C70.591,14.889,58,32.226,57.941,32.194c0,0,8.339-33.325-7.038-32.165C39.224,1.55,39.867,29.969,39.773,29.984c0,0-7.54-16.4-14.907-11.678C14.191,25.156,31.12,51.9,31.12,51.9s-12.039-14.86-18.309-7.116c-8.23,10.157,7.634,33.544,7.634,33.544S-2.315,68.513.193,84.3A51.883,51.883,0,0,0,17.718,115.13c12.054,6.082,46.367-5.282,44.831-20.1-.941-9.107-17.008-5.721-17.008-5.721,11.4-4.42,35.646-16.835,32.072-31.522C75.058,47.258,56.64,57.839,56.64,57.823Z" transform="translate(520.68 184.119)" fill="url(#linear-gradient-4)"/>
          <path id="Vector-6" data-name="Vector" d="M36.3,95.57a47.523,47.523,0,0,1-7.822,1.27,35.412,35.412,0,0,1-5.91-.016A221.554,221.554,0,0,0,34.58,69.6a48.848,48.848,0,0,0,8.026-1.379,52.485,52.485,0,0,0,8.747-3.26,53.875,53.875,0,0,0,8.371-5.032,52.95,52.95,0,0,0,7.712-6.8A49.966,49.966,0,0,1,59.6,59.58a52.962,52.962,0,0,1-8.4,4.655,51.574,51.574,0,0,1-8.668,2.884,46.546,46.546,0,0,1-7.43,1.035,198.355,198.355,0,0,0,6.568-22.211,45.991,45.991,0,0,0,7.759-4.577c1.317-.893,2.555-1.991,3.809-3.01,1.207-1.129,2.43-2.242,3.574-3.448a66.508,66.508,0,0,0,6.458-7.963,62.428,62.428,0,0,0,5.3-9.3,59.546,59.546,0,0,1-5.518,9.029,65.633,65.633,0,0,1-6.6,7.634c-1.16,1.16-2.4,2.21-3.621,3.26-1.27.956-2.492,1.991-3.809,2.821a42.718,42.718,0,0,1-6.944,3.856A266.051,266.051,0,0,0,47.637,0a264.328,264.328,0,0,1-6.756,44.015c-1.63-1.9-3.2-3.872-4.656-5.956-1.662-2.4-3.292-4.859-4.8-7.367s-2.978-5.063-4.389-7.634c-1.4-2.571-2.759-5.157-4.029-7.775,1.176,2.665,2.445,5.314,3.746,7.947,1.317,2.633,2.712,5.251,4.123,7.853,1.426,2.6,2.963,5.157,4.562,7.665a80.151,80.151,0,0,0,4.969,6.9,198.48,198.48,0,0,1-7.195,22.023,36.021,36.021,0,0,1-5.424-4.734,61.174,61.174,0,0,1-5.3-6.678c-1.63-2.351-3.151-4.8-4.593-7.273-1.426-2.477-2.806-5-4.044-7.555,1.144,2.618,2.43,5.188,3.778,7.743s2.79,5.079,4.342,7.524a65,65,0,0,0,5.11,7.038,36.747,36.747,0,0,0,5.6,5.329A218.182,218.182,0,0,1,20.1,95.585c-1.426-1.693-2.79-3.448-4.076-5.282-1.6-2.3-3.151-4.655-4.593-7.069s-2.869-4.859-4.2-7.32c-1.348-2.461-2.649-4.938-3.872-7.461,1.129,2.555,2.351,5.094,3.605,7.634,1.254,2.524,2.586,5.047,3.934,7.54s2.822,4.953,4.326,7.352c1.285,2.038,2.68,4,4.138,5.894A218.2,218.2,0,0,1,0,125.383c1.176.909,1.771,1.364,2.963,2.273A219.852,219.852,0,0,0,21.836,98.172a36.4,36.4,0,0,0,6.521-.219A49.76,49.76,0,0,0,36.3,96.306a67.2,67.2,0,0,0,7.885-2.868A63.415,63.415,0,0,0,51.9,89.425a63.124,63.124,0,0,1-7.759,3.652A64.791,64.791,0,0,1,36.3,95.57Z" transform="translate(523.805 191.5)" fill="#6943d8"/>
        </g>
      </g>
      <g id="Group-5" data-name="Group">
        <g id="Group-6" data-name="Group">
          <path id="Vector-7" data-name="Vector" d="M14.037,36.053S-.117,13.45,6.2,9.735c4.373-2.571,10.173,9.954,10.2,9.954,0,0-1.113-22.117,8.465-19.468,7.195,2.43,3.245,20.315,3.292,20.33,0,0,6.819-9.436,10.894-5.518C44.949,20.692,30.9,35.5,30.9,35.5s9.468-7.9,12.478-2.226c3.934,7.446-9.029,20.268-9.029,20.268s15.628-3.37,12.054,6.317A33.438,33.438,0,0,1,31.468,77.184C23.082,79.519,2.8,68.061,5.62,58.876c1.74-5.643,11.474-1.489,11.474-1.489C10.448,53.17-3.347,42.292.745,33.435,3.692,27.071,14.022,36.069,14.037,36.053Z" transform="translate(59.041 250.296)" fill="url(#linear-gradient-5)"/>
          <path id="Vector-8" data-name="Vector" d="M14.406,61.853a31.152,31.152,0,0,0,4.8,1.787,22.376,22.376,0,0,0,3.731.721,141.828,141.828,0,0,1-4.2-18.731,30.119,30.119,0,0,1-4.906-1.881A33.919,33.919,0,0,1,8.7,40.6a34.65,34.65,0,0,1-4.671-4.232A34.1,34.1,0,0,1,0,31.1a31.528,31.528,0,0,0,4.154,5.063,34.042,34.042,0,0,0,4.734,4,31.647,31.647,0,0,0,5.126,2.9,28.762,28.762,0,0,0,4.577,1.583,127.7,127.7,0,0,1-1.379-14.86,30.363,30.363,0,0,1-4.342-3.856c-.721-.737-1.364-1.567-2.038-2.383C10.2,22.682,9.578,21.819,9,20.91A42.15,42.15,0,0,1,5.91,15.064,40.01,40.01,0,0,1,3.715,8.527a39.961,39.961,0,0,0,2.367,6.411A41.18,41.18,0,0,0,9.311,20.6c.58.878,1.238,1.693,1.881,2.524.674.768,1.332,1.567,2.053,2.257a28.642,28.642,0,0,0,3.919,3.307A172.279,172.279,0,0,1,19.171,0a170.363,170.363,0,0,0-1.223,28.685A46.977,46.977,0,0,0,21.632,25.5c1.348-1.317,2.7-2.665,3.95-4.06,1.27-1.4,2.524-2.821,3.731-4.279,1.207-1.442,2.383-2.916,3.511-4.42-1.066,1.552-2.21,3.057-3.37,4.561s-2.367,2.994-3.59,4.452c-1.223,1.473-2.524,2.884-3.84,4.279a53.274,53.274,0,0,1-4.013,3.746,127.618,127.618,0,0,0,1.8,14.828,22.8,22.8,0,0,0,4.013-2.32,40.832,40.832,0,0,0,4.185-3.558c1.317-1.285,2.586-2.649,3.809-4.028,1.223-1.4,2.4-2.806,3.5-4.279-1.05,1.52-2.179,2.978-3.355,4.42s-2.4,2.869-3.684,4.217a42.819,42.819,0,0,1-4.107,3.809,23.888,23.888,0,0,1-4.2,2.68,139.9,139.9,0,0,0,4.656,18.355c1.113-.893,2.195-1.834,3.229-2.837,1.3-1.254,2.571-2.555,3.793-3.9,1.207-1.348,2.414-2.712,3.574-4.107s2.3-2.79,3.386-4.232c-1.035,1.473-2.116,2.931-3.229,4.373s-2.257,2.868-3.433,4.279-2.4,2.774-3.668,4.107c-1.066,1.129-2.195,2.194-3.355,3.213a140.531,140.531,0,0,0,8.684,20.456c-.862.423-1.285.643-2.148,1.066a143.911,143.911,0,0,1-8.261-21,23.456,23.456,0,0,1-4.091-.956A32.076,32.076,0,0,1,14.3,62.323a41.8,41.8,0,0,1-4.624-2.806A39.723,39.723,0,0,1,5.3,56.006,41.029,41.029,0,0,0,9.75,59.282,38.952,38.952,0,0,0,14.406,61.853Z" transform="translate(63.924 255.187)" fill="#6943d8"/>
        </g>
      </g>
      <g id="Group-7" data-name="Group">
        <g id="Group-8" data-name="Group">
          <path id="Vector-9" data-name="Vector" d="M21.785,55.911S-.176,20.862,9.636,15.094c6.787-4,15.769,15.455,15.832,15.44,0,0-1.724-34.312,13.136-30.19,11.161,3.762,5.016,31.507,5.11,31.538,0,0,10.565-14.625,16.882-8.558,9.139,8.778-12.65,31.742-12.65,31.742S62.634,42.823,67.29,51.616c6.113,11.552-14,31.428-14,31.428s24.234-5.22,18.7,9.781a51.858,51.858,0,0,1-23.168,26.851c-13.01,3.621-44.471-14.154-40.1-28.387,2.7-8.747,17.791-2.32,17.791-2.32C16.2,82.433-5.193,65.551,1.156,51.836,5.749,41.976,21.785,55.927,21.785,55.911Z" transform="translate(80.496 184.949)" fill="url(#linear-gradient-6)"/>
          <path id="Vector-10" data-name="Vector" d="M22.322,95.946a50.851,50.851,0,0,0,7.43,2.774,36.075,36.075,0,0,0,5.8,1.129A219.012,219.012,0,0,1,29.046,70.8a47.174,47.174,0,0,1-7.6-2.916A51.676,51.676,0,0,1,13.5,63a54.389,54.389,0,0,1-7.242-6.552A52.792,52.792,0,0,1,0,48.279a51.468,51.468,0,0,0,6.427,7.853,52.8,52.8,0,0,0,7.336,6.192,50.378,50.378,0,0,0,7.947,4.5,45.347,45.347,0,0,0,7.1,2.461,199.472,199.472,0,0,1-2.148-23.058,45.543,45.543,0,0,1-6.725-5.988c-1.113-1.129-2.116-2.445-3.151-3.7-.972-1.332-1.959-2.665-2.837-4.075a67.044,67.044,0,0,1-4.8-9.06A61.116,61.116,0,0,1,5.768,13.261,61.415,61.415,0,0,0,9.437,23.2a64.968,64.968,0,0,0,5,8.762c.909,1.364,1.928,2.633,2.916,3.9,1.05,1.191,2.069,2.43,3.2,3.5a43.258,43.258,0,0,0,6.066,5.126A264.156,264.156,0,0,1,29.736,0a265.43,265.43,0,0,0-1.9,44.485c1.959-1.552,3.887-3.166,5.721-4.938,2.1-2.038,4.17-4.123,6.129-6.3s3.9-4.389,5.784-6.63c1.865-2.242,3.7-4.514,5.455-6.85-1.662,2.4-3.417,4.75-5.22,7.069-1.8,2.336-3.668,4.64-5.565,6.913s-3.9,4.483-5.972,6.63a84.013,84.013,0,0,1-6.223,5.815,199.267,199.267,0,0,0,2.79,23,35.017,35.017,0,0,0,6.239-3.605,59.965,59.965,0,0,0,6.49-5.533c2.053-1.991,4.029-4.091,5.91-6.254,1.881-2.147,3.715-4.358,5.424-6.63-1.63,2.351-3.386,4.624-5.2,6.866s-3.715,4.452-5.706,6.536a63.027,63.027,0,0,1-6.38,5.909,37.682,37.682,0,0,1-6.521,4.154A216.873,216.873,0,0,0,38.2,99.1c1.724-1.379,3.4-2.837,5.016-4.389,2.006-1.944,3.982-3.966,5.878-6.051,1.881-2.085,3.746-4.2,5.549-6.364S58.2,77.951,59.9,75.725c-1.6,2.289-3.292,4.546-5.016,6.787s-3.511,4.452-5.314,6.63c-1.818,2.179-3.731,4.311-5.674,6.38-1.646,1.756-3.4,3.4-5.2,4.985a217.3,217.3,0,0,0,13.481,31.726c-1.332.658-2.006,1-3.339,1.662a220.408,220.408,0,0,1-12.807-32.588,37.615,37.615,0,0,1-6.348-1.473A52.268,52.268,0,0,1,22.2,96.683a65.758,65.758,0,0,1-7.179-4.342A62.516,62.516,0,0,1,8.23,86.9a61.487,61.487,0,0,0,6.913,5.079A58.5,58.5,0,0,0,22.322,95.946Z" transform="translate(88.111 192.519)" fill="#6943d8"/>
        </g>
      </g>
      <path id="Vector-11" data-name="Vector" d="M35.16,105.041c23.027-4.389,39.627,12.9,40.724,14,1.019-3.543,11.051-36.178,43.593-47.73,20.582-7.336,38.7-2.1,44.941,0a32.109,32.109,0,0,1,39.376-42.165,63.507,63.507,0,0,1,115.2,19.641c7.508-11.223,21-16.866,33.733-14.076a32.417,32.417,0,0,1,23.952,22.509,58.845,58.845,0,0,1,99.24,24.892c15.268-12.07,35.834-16.615,54.942-10.612,28.592,9,46.6,39.344,40.364,70.051H0C3.449,122.91,17.619,108.333,35.16,105.041Z" transform="translate(8.59 205.118)" fill="url(#linear-gradient-7)"/>
    </g>
    <g id="Group-9" data-name="Group">
      <g id="Group-10" data-name="Group">
        <g id="Group-11" data-name="Group">
          <path id="Vector-12" data-name="Vector" d="M78.169,79.647S117.451,38.391,105.82,27.92c-8.057-7.257-25.535,16.506-25.613,16.459,0,0,11.788-45.818-9.389-44.344-16.1,2.006-15.456,41.131-15.6,41.147,0,0-10.236-22.65-20.425-16.208C20.045,34.3,43.1,71.293,43.1,71.293S26.66,50.727,17.96,61.324c-11.427,13.9,10.22,46.257,10.22,46.257S-3.076,93.849.247,115.637a71.353,71.353,0,0,0,23.858,42.6c16.553,8.48,63.892-6.85,61.917-27.259-1.223-12.556-23.356-8.026-23.356-8.026,15.722-5.972,49.236-22.854,44.439-43.122C103.641,65.274,78.185,79.663,78.169,79.647Z" transform="translate(545.032 196.748)" fill="url(#linear-gradient-8)"/>
        </g>
        <path id="Vector-13" data-name="Vector" d="M50.224,131.528a68.458,68.458,0,0,1-10.785,1.693,48.543,48.543,0,0,1-8.135-.078,301.6,301.6,0,0,0,16.772-37.4,65.746,65.746,0,0,0,11.067-1.834,70.121,70.121,0,0,0,12.07-4.42A75.1,75.1,0,0,0,82.8,82.638a71.219,71.219,0,0,0,10.675-9.311,69.14,69.14,0,0,1-10.847,8.825,71.853,71.853,0,0,1-11.6,6.333,69.035,69.035,0,0,1-11.96,3.887,61.9,61.9,0,0,1-10.252,1.364,272.578,272.578,0,0,0,9.248-30.519,62.661,62.661,0,0,0,10.722-6.223c1.818-1.223,3.527-2.712,5.267-4.122,1.677-1.536,3.37-3.057,4.953-4.734a92.07,92.07,0,0,0,8.966-10.91,83.907,83.907,0,0,0,7.367-12.744,84.081,84.081,0,0,1-7.681,12.4,88.759,88.759,0,0,1-9.17,10.455c-1.6,1.583-3.323,3.025-5,4.467-1.756,1.317-3.464,2.712-5.283,3.84a58.657,58.657,0,0,1-9.609,5.235A365.1,365.1,0,0,0,66.651,0a364.475,364.475,0,0,1-9.7,60.552A102.426,102.426,0,0,1,50.6,52.323C48.327,49,46.117,45.6,44.063,42.134c-2.053-3.48-4.06-6.991-5.972-10.549-1.9-3.543-3.762-7.116-5.471-10.737,1.583,3.684,3.307,7.336,5.094,10.972s3.684,7.257,5.612,10.847c1.944,3.59,4.044,7.116,6.223,10.6a114.166,114.166,0,0,0,6.787,9.546A272.732,272.732,0,0,1,46.242,93.062a47.538,47.538,0,0,1-7.414-6.583,84.109,84.109,0,0,1-7.242-9.248c-2.21-3.245-4.3-6.63-6.254-10.063-1.944-3.417-3.825-6.9-5.5-10.455,1.552,3.621,3.292,7.179,5.126,10.69,1.834,3.527,3.793,7.022,5.91,10.408a89.326,89.326,0,0,0,6.975,9.734,50.994,50.994,0,0,0,7.65,7.4,299.246,299.246,0,0,1-17.572,36.413c-1.944-2.351-3.809-4.765-5.549-7.3-2.179-3.182-4.3-6.442-6.254-9.765s-3.9-6.709-5.721-10.11c-1.834-3.4-3.621-6.834-5.267-10.3,1.536,3.543,3.182,7.038,4.891,10.534s3.511,6.975,5.345,10.424c1.85,3.448,3.84,6.834,5.91,10.173,1.74,2.821,3.652,5.518,5.643,8.151A299.253,299.253,0,0,1,0,172.251c1.615,1.27,2.43,1.9,4.044,3.166A303.1,303.1,0,0,0,30.3,134.976a52.261,52.261,0,0,0,8.982-.235,69.361,69.361,0,0,0,10.941-2.194A91.214,91.214,0,0,0,61.1,128.659,90.054,90.054,0,0,0,71.761,123.2a85.388,85.388,0,0,1-10.722,4.953A87.714,87.714,0,0,1,50.224,131.528Z" transform="translate(548.885 206.846)" fill="#fff"/>
      </g>
    </g>
    <g id="Group-12" data-name="Group">
      <g id="Group-13" data-name="Group">
        <g id="Group-14" data-name="Group">
          <path id="Vector-14" data-name="Vector" d="M79.52,121.491c.643-2.837-1.223-5.518-1.411-5.8a4.5,4.5,0,0,0,5.251-3.276,6.634,6.634,0,0,0-2.524-6.772A6.524,6.524,0,0,0,84.959,99.8a8.729,8.729,0,0,0-5.314-8.1,14.347,14.347,0,0,0,3.966-15.158c-2.242-6.662-8.841-8.982-9.248-9.123A9.9,9.9,0,0,0,73.015,56.1,9.189,9.189,0,0,0,63.5,53.524a11.835,11.835,0,0,0-.125-13.01,11.12,11.12,0,0,0-8.653-4.42,18.653,18.653,0,0,0-2.367-16.568,14.771,14.771,0,0,0-10.2-6c.047-.627.486-5.737-2.571-9.687C36.946.418,30.41-1.714,27.1,1.813c-2.226-1.63-7.6-2.524-10.91.266-2.853,2.414-4.452,7.085-4.029,11.96C6.536,12.864,1.191,17.66.172,25.388c-.956,7.148,2.163,14.954,7.195,18.261-.533.282-4.859,2.6-5.486,9.5A20.431,20.431,0,0,0,7.336,68.619c-.423.455-4.138,4.608-2.853,12.3C5.517,87.022,9.4,92.759,14.139,95.3c-1.332,5.157.172,11.9,3.95,17.086,4.154,5.69,10.2,8.433,14.907,7.1-.125,4.938,3.5,10.361,7.587,11.991,3.37,1.348,6.49,0,7.65-3.2,1.568,3.919,5.2,6.85,8.418,7.022a4.871,4.871,0,0,0,5.141-4.264A7.178,7.178,0,0,0,67.2,134.2c2.445-.031,6.3-3.48,5.972-7.665C76.025,126.836,78.971,123.9,79.52,121.491Z" transform="translate(-0.015 218.043)" fill="url(#linear-gradient-9)"/>
        </g>
        <path id="Vector-15" data-name="Vector" d="M58.735,85.35C57.5,87.92,56.2,90.538,54.754,93.015c-.674,1.27-1.442,2.492-2.148,3.715-.455.784-.956,1.552-1.442,2.3a158.123,158.123,0,0,1-12.305-20.44c.69-.956,1.426-1.9,2.085-2.837.815-1.191,1.693-2.4,2.492-3.605,1.583-2.4,3.213-4.906,4.7-7.4S51.07,59.69,52.418,57.1a82.226,82.226,0,0,0,3.7-7.9,79.528,79.528,0,0,1-3.966,7.712c-1.426,2.508-2.947,5-4.53,7.4C46.054,66.7,44.33,69.126,42.668,71.4c-.831,1.144-1.74,2.3-2.6,3.433-.611.8-1.27,1.583-1.912,2.367a158.391,158.391,0,0,1-8.778-19.97c1.317-1.85,2.633-3.746,3.872-5.643,1.332-2.038,2.633-4.154,3.9-6.254,1.254-2.1,2.461-4.264,3.621-6.427s2.273-4.342,3.276-6.583c-1.082,2.179-2.289,4.311-3.527,6.4S38,42.886,36.664,44.893s-2.727,4.028-4.123,5.956c-1.191,1.646-2.445,3.26-3.715,4.859a159.771,159.771,0,0,1-7.414-26.067c2.586-2.978,5.032-6.129,7.336-9.389,2.351-3.339,6.615-10.33,6.615-10.33S30.943,16.772,28.529,20a107.386,107.386,0,0,1-7.289,8.794A160.062,160.062,0,0,1,17.6,0a159.11,159.11,0,0,0,1.379,18.371,43.238,43.238,0,0,1-9.092-3.01c-3.072-1.4-9.029-5.11-9.029-5.11S6.74,14.217,9.8,15.738a44.053,44.053,0,0,0,9.264,3.417A159.245,159.245,0,0,0,24.626,46.6a49.014,49.014,0,0,1-5.6-.784,60.753,60.753,0,0,1-6.4-1.63A69.174,69.174,0,0,1,0,38.842a71.4,71.4,0,0,0,12.572,6.113A61.831,61.831,0,0,0,19,46.946a50.738,50.738,0,0,0,6.051,1.144,158.473,158.473,0,0,0,7.712,21.741,52.859,52.859,0,0,1-14.8.533,73.841,73.841,0,0,1-16.349-3.48,74.256,74.256,0,0,0,16.428,4.264,52.691,52.691,0,0,0,15.3.047A160.9,160.9,0,0,0,44,92.184a55.526,55.526,0,0,1-6.458,1.348,64.686,64.686,0,0,1-8.057.674,69.413,69.413,0,0,1-16.82-1.693,70.417,70.417,0,0,0,16.992,2.461,67.768,67.768,0,0,0,8.214-.329,58.91,58.91,0,0,0,6.881-1.16c9.766,16.02,21.459,29.688,34.8,42.761.941-1.05,1.411-1.583,2.351-2.633-11.02-10.33-21.177-20.942-29.893-33.34.517-.925,1.066-1.85,1.552-2.774.674-1.285,1.4-2.555,2.022-3.872,1.332-2.586,2.555-5.282,3.7-7.931,1.16-2.665,2.226-5.408,3.2-8.151a86.568,86.568,0,0,0,2.586-8.323A79.022,79.022,0,0,1,62.2,77.4C61.134,80.083,59.974,82.779,58.735,85.35Z" transform="translate(9.656 227.239)" fill="#fff"/>
      </g>
    </g>
    <g id="Group-15" data-name="Group">
      <g id="Group-16" data-name="Group">
        <g id="Group-17" data-name="Group">
          <path id="Vector-16" data-name="Vector" d="M83.613,88.045C86.2,83.86,88.974,79.895,91.42,75.49a83.448,83.448,0,0,0,4.546-9.609A97.01,97.01,0,0,0,89.789,40.6a17.015,17.015,0,0,1-.768,1.615C84.46,50.9,78.848,59.69,74.663,68.483c-.549,1.16-1.05,2.414-1.552,3.684a143,143,0,0,1,4.906-19.578c2.257-6.772,5.063-13.136,6.364-20.565.141-.831.266-1.709.345-2.555C79.067,19.217,71.481,10.047,61.135,4.342c.141,5.8.549,11.74.831,17.525.235,4.8.392,9.624.784,14.421A202.641,202.641,0,0,1,56.715,2.32,34.838,34.838,0,0,0,42.779.031c.361,4.546.862,9.138,1.473,13.684C42.544,9.311,40.883,4.859,39.3.376a31.6,31.6,0,0,0-11.709,3.9,43.282,43.282,0,0,0-8.182,6.489A72.265,72.265,0,0,1,27.12,25.283a64.646,64.646,0,0,0-11.4-10.675,72.569,72.569,0,0,0-7.493,10c7.414,5.627,12.258,12.775,17.008,20.6a62.872,62.872,0,0,0-7.979-7.367,90.7,90.7,0,0,0-12.1-7.665C1.475,37.18-.641,46.977.174,54.846,1.412,55.6,2.7,56.32,3.936,57.025c6.333,3.574,12.995,7.163,18.136,12.963a53.379,53.379,0,0,1,6,8.574,5.027,5.027,0,0,0,.3.486A63.12,63.12,0,0,0,8.215,65.928a52.052,52.052,0,0,0-6.631-2.179c1.521,7.1,3.088,13.716,4.718,19.97.878.392,1.74.784,2.633,1.191,9.358,4.217,18.262,10.408,23.936,18.982.2.313.439.674.643,1-5.33-4.922-10.738-9.609-17.023-12.273A42.29,42.29,0,0,0,8.059,90.13c2.79,9.374,5.8,18.559,9.076,27.76.517.329,1.066.674,1.583.988,5.377,3.292,11.051,6.521,15.268,11.756a37.334,37.334,0,0,1,5.972,11.286c-.266-.2-.564-.408-.846-.611a74.116,74.116,0,0,0-16.459-8.982c8.135,20.518,17.494,72.763,17.494,72.763.016,0,29.47-44.125,41.7-67.1-2.351,1.52-4.671,3.088-6.991,4.655-2.963,2.006-5.988,4.013-9,5.956.564-.752,1.16-1.5,1.771-2.195,1.5-1.724,3.135-3.307,4.64-5.047,1.693-1.959,3.245-4.185,4.844-6.348a150.87,150.87,0,0,1,12.133-14.593c4.875-14.139,6.975-28.2,7.383-43.09-.266.486-.533.941-.815,1.411a71.087,71.087,0,0,1-5.6,8.778A62.4,62.4,0,0,1,83.8,94.237c-2.775,2.633-5.565,5.345-8.214,8.214C78.111,97.482,80.776,92.638,83.613,88.045Z" transform="translate(369.104 255.783)" fill="url(#linear-gradient-10)"/>
          <path id="Vector-17" data-name="Vector" d="M49.095,127.985c.455-7.461.533-11.208.423-18.669,2.461-4.828,5.032-9.656,7.65-14.405C59.927,89.9,62.8,84.817,65.6,79.769s5.612-10.173,8.371-15.33c2.759-5.141,5.471-10.377,8.182-15.565-2.869,5.016-5.721,10.079-8.621,15.064-2.9,5-5.847,9.985-8.778,14.891-2.947,4.922-5.941,9.891-8.841,14.8-2.195,3.715-4.373,7.493-6.49,11.3a206.716,206.716,0,0,0-1.693-21.992A123.112,123.112,0,0,0,54.863,68.28a130.894,130.894,0,0,0,5.408-16.537,135.6,135.6,0,0,0,3.292-17.885,126.607,126.607,0,0,0,.846-19.014A125.909,125.909,0,0,1,63.03,33.591,131.178,131.178,0,0,1,59.268,51.1a127.638,127.638,0,0,1-5.8,16.051,115.568,115.568,0,0,1-6.223,12.1c-.909-6.693-1.489-10.016-2.853-16.647.11.047.172.063.282.11a149.442,149.442,0,0,0,1.6-15.111,139.82,139.82,0,0,0,.078-15.6A223.838,223.838,0,0,0,41.916,0,219.428,219.428,0,0,1,45.27,31.82a138.626,138.626,0,0,1-.6,15.346q-.47,5.384-1.348,10.6A313.68,313.68,0,0,0,28.843,13.637,312.9,312.9,0,0,1,42.214,58.373C37.4,51.57,32.652,44.658,27.73,37.965c-5.643-7.649-11.537-15.111-17.6-22.493,5.816,7.634,11.427,15.346,16.82,23.246,2.712,3.966,5.314,8.057,7.963,12.132,2.633,4.075,5.251,8.214,7.979,12.289.078-.078.11-.125.188-.2,1.05,5.894,1.489,8.856,2.179,14.781a103.986,103.986,0,0,0-7.508-10.972A119.759,119.759,0,0,0,26.256,54a123.079,123.079,0,0,0-12.7-10.581A107.914,107.914,0,0,0,0,35.049a107.779,107.779,0,0,1,13.308,8.856,124.533,124.533,0,0,1,12.321,11,118.7,118.7,0,0,1,11,13.057A114.833,114.833,0,0,1,45.819,83.03a206.737,206.737,0,0,1,1.1,21.553,78.256,78.256,0,0,0-7.164-10.5A91.989,91.989,0,0,0,28.294,82.387a104.034,104.034,0,0,0-12.666-9.248A101.99,101.99,0,0,0,2.195,66.07a98.423,98.423,0,0,1,13.2,7.571A102.713,102.713,0,0,1,27.7,83.359,91.512,91.512,0,0,1,38.655,95.4a76.552,76.552,0,0,1,8.277,13.81c-.078,6.725-.235,10.079-.768,16.772a57.185,57.185,0,0,0-5.392-7.665,69.181,69.181,0,0,0-9.17-9.029,79.768,79.768,0,0,0-10.173-7.054,78.5,78.5,0,0,0-10.816-5.314,78.233,78.233,0,0,1,10.565,5.831,81.125,81.125,0,0,1,9.8,7.54,69.614,69.614,0,0,1,8.653,9.389,58.494,58.494,0,0,1,6.16,10.189A263.858,263.858,0,0,1,8.167,238.885c2.116,1.317,3.182,1.975,5.3,3.292A268.558,268.558,0,0,0,48.86,130.885a89.592,89.592,0,0,0,16.788-14.734,114.456,114.456,0,0,0,14.876-20.66,111.952,111.952,0,0,1-15.519,19.547A84,84,0,0,1,49.095,127.985Z" transform="translate(376.567 264.952)" fill="#5148ff"/>
        </g>
      </g>
      <g id="Group-18" data-name="Group">
        <g id="Group-19" data-name="Group">
          <path id="Vector-18" data-name="Vector" d="M9.2,62.174c-1.834-2.947-3.793-5.753-5.5-8.856A60.083,60.083,0,0,1,.486,46.53,68.7,68.7,0,0,1,4.844,28.676c.172.392.345.784.533,1.144,3.213,6.129,7.179,12.336,10.142,18.543.392.815.737,1.709,1.1,2.6a101.292,101.292,0,0,0-3.464-13.825c-1.6-4.781-3.574-9.264-4.5-14.531a17.729,17.729,0,0,1-.235-1.8c4-7.242,9.358-13.716,16.663-17.744-.094,4.091-.392,8.292-.6,12.367-.172,3.386-.282,6.8-.549,10.189A142.9,142.9,0,0,0,28.2,1.637,24.692,24.692,0,0,1,38.044.023c-.251,3.213-.611,6.442-1.05,9.656,1.207-3.1,2.383-6.254,3.5-9.421A22.162,22.162,0,0,1,48.75,3a31.686,31.686,0,0,1,5.784,4.577,50.888,50.888,0,0,0-5.439,10.251,45.5,45.5,0,0,1,8.041-7.54,49.988,49.988,0,0,1,5.283,7.069c-5.236,3.981-8.653,9.029-12.007,14.546a46.133,46.133,0,0,1,5.627-5.2,61.561,61.561,0,0,1,8.543-5.408,33.132,33.132,0,0,1,3.511,17.43c-.878.533-1.787,1.05-2.665,1.536-4.467,2.524-9.17,5.063-12.807,9.154a39.048,39.048,0,0,0-4.248,6.051,2.5,2.5,0,0,1-.2.345A44.186,44.186,0,0,1,62.4,46.546,34.854,34.854,0,0,1,67.09,45.01c-1.066,5.016-2.179,9.687-3.323,14.107-.611.282-1.238.549-1.865.831C55.287,62.926,49.017,67.3,45,73.35c-.141.219-.314.47-.455.705,3.762-3.464,7.571-6.787,12.023-8.668a29.5,29.5,0,0,1,5.957-1.756c-1.975,6.615-4.091,13.1-6.411,19.609-.361.235-.752.47-1.113.69-3.793,2.32-7.806,4.608-10.785,8.308A26.313,26.313,0,0,0,40,100.2c.188-.141.408-.282.6-.423a53.083,53.083,0,0,1,11.615-6.348c-5.737,14.484-12.352,51.382-12.352,51.382-.016,0-20.817-31.162-29.438-47.385,1.662,1.066,3.307,2.179,4.938,3.292,2.085,1.426,4.217,2.821,6.348,4.2-.408-.533-.815-1.05-1.254-1.552-1.066-1.223-2.21-2.336-3.276-3.574-1.207-1.379-2.289-2.947-3.417-4.483A107.271,107.271,0,0,0,5.2,85.012,99.986,99.986,0,0,1,0,54.587c.188.345.376.658.564,1A48.165,48.165,0,0,0,4.514,61.8a43.6,43.6,0,0,0,4.53,4.75c1.959,1.865,3.934,3.762,5.8,5.8C13.073,68.835,11.208,65.4,9.2,62.174Z" transform="translate(25.065 284.288)" fill="url(#linear-gradient-11)"/>
          <path id="Vector-19" data-name="Vector" d="M23.356,90.319c-.314-5.267-.376-7.9-.3-13.183-1.74-3.417-3.543-6.819-5.408-10.173-1.959-3.543-3.966-7.116-5.957-10.69-1.975-3.558-3.966-7.179-5.91-10.816S1.928,38.137,0,34.469c2.022,3.543,4.044,7.116,6.082,10.643q3.08,5.29,6.207,10.518c2.085,3.48,4.185,6.991,6.239,10.455,1.552,2.618,3.088,5.3,4.593,7.979a146.744,146.744,0,0,1,1.191-15.518A87.825,87.825,0,0,1,19.265,48.2,94.3,94.3,0,0,1,15.44,36.522a95.723,95.723,0,0,1-2.32-12.634,90.014,90.014,0,0,1-.6-13.418A88.973,88.973,0,0,0,13.5,23.716a93.4,93.4,0,0,0,2.649,12.367,91.188,91.188,0,0,0,4.091,11.333,82.555,82.555,0,0,0,4.389,8.543c.643-4.718,1.05-7.069,2.006-11.756-.078.031-.125.047-.2.078-.533-3.5-.941-7.054-1.129-10.675a99.046,99.046,0,0,1-.063-11A159.59,159.59,0,0,1,28.372,0a154.071,154.071,0,0,0-2.367,22.462,95.673,95.673,0,0,0,.423,10.831c.219,2.524.549,5.032.956,7.477A221.28,221.28,0,0,1,37.6,9.624a221.638,221.638,0,0,0-9.437,31.585C31.57,36.4,34.924,31.522,38.4,26.8c3.982-5.408,8.151-10.675,12.43-15.894C46.728,16.3,42.762,21.741,38.969,27.321c-1.912,2.79-3.746,5.69-5.612,8.574s-3.7,5.8-5.643,8.668a.6.6,0,0,0-.141-.141c-.737,4.17-1.05,6.254-1.536,10.439a73.991,73.991,0,0,1,5.3-7.743,82.956,82.956,0,0,1,8.12-9,84.717,84.717,0,0,1,8.966-7.461A77.687,77.687,0,0,1,58,24.751,76.333,76.333,0,0,0,48.609,31a84.146,84.146,0,0,0-8.7,7.775A85.608,85.608,0,0,0,32.134,48a81.948,81.948,0,0,0-6.49,10.643,141.388,141.388,0,0,0-.768,15.22,55.058,55.058,0,0,1,5.063-7.414A63.952,63.952,0,0,1,38.028,58.2a73.69,73.69,0,0,1,8.951-6.536,70.343,70.343,0,0,1,9.484-4.985,69.224,69.224,0,0,0-9.311,5.345,73.211,73.211,0,0,0-8.684,6.866,63.588,63.588,0,0,0-7.728,8.5,53.327,53.327,0,0,0-5.831,9.75c.063,4.749.157,7.116.549,11.85a41.62,41.62,0,0,1,3.809-5.408A48.724,48.724,0,0,1,35.74,77.2a57.682,57.682,0,0,1,7.179-4.985,54.7,54.7,0,0,1,7.634-3.762,55.12,55.12,0,0,0-7.461,4.122A57.023,57.023,0,0,0,36.163,77.9a49.3,49.3,0,0,0-6.113,6.63,41.252,41.252,0,0,0-4.358,7.195,186.648,186.648,0,0,0,26.554,76.979c-1.489.925-2.242,1.4-3.746,2.32A189.545,189.545,0,0,1,23.513,92.45a63.022,63.022,0,0,1-11.85-10.408A81.582,81.582,0,0,1,1.16,67.465,78.937,78.937,0,0,0,12.117,81.259,62.622,62.622,0,0,0,23.356,90.319Z" transform="translate(30.002 290.816)" fill="#5148ff"/>
        </g>
      </g>
      <g id="Group-20" data-name="Group">
        <g id="Group-21" data-name="Group">
          <path id="Vector-20" data-name="Vector" d="M56.682,70.26c2.727-2.242,5.533-4.295,8.214-6.709a58.65,58.65,0,0,0,5.314-5.471,70.076,70.076,0,0,0,1.677-18.606,12.549,12.549,0,0,1-.894.925c-5.11,4.844-10.957,9.515-15.863,14.515-.643.658-1.27,1.4-1.912,2.147A100.414,100.414,0,0,1,61.1,44.914c3.1-4.075,6.49-7.743,9.107-12.493.3-.533.58-1.1.831-1.662C69.582,22.468,66.557,14.489,60.851,8.2c-1.254,3.981-2.351,8.1-3.5,12.1-.956,3.307-1.975,6.63-2.822,9.985A144.974,144.974,0,0,1,58.328,5.821a25.207,25.207,0,0,0-8.935-4.8c-.815,3.166-1.536,6.411-2.179,9.64-.141-3.386-.235-6.8-.267-10.2A22.681,22.681,0,0,0,38.091.382a32.239,32.239,0,0,0-7.07,2.508,51.751,51.751,0,0,1,1.865,11.646A47.329,47.329,0,0,0,27.635,4.63a51.168,51.168,0,0,0-7.414,5.063c3.731,5.549,5.361,11.521,6.772,17.948a44.354,44.354,0,0,0-3.715-6.866,63.177,63.177,0,0,0-6.443-8.01A33.709,33.709,0,0,0,7.712,28.377c.658.8,1.364,1.6,2.053,2.351,3.48,3.9,7.164,7.884,9.311,13.01a37.981,37.981,0,0,1,2.085,7.226,2.867,2.867,0,0,0,.094.392,45.011,45.011,0,0,0-10.644-13.59,35.075,35.075,0,0,0-4-3.01C6,39.93,5.518,44.789,5.189,49.413c.5.47,1,.941,1.521,1.411,5.377,5.032,9.985,11.317,11.85,18.449.063.266.141.564.2.831-2.477-4.577-5.063-9.013-8.715-12.289a29.538,29.538,0,0,0-5.157-3.652c-.282,7.007-.376,13.951-.282,20.973.282.345.564.705.846,1.035,2.884,3.48,5.988,6.991,7.65,11.537a26.459,26.459,0,0,1,1.426,9.06l-.423-.611a53.254,53.254,0,0,0-9.092-9.922C5.768,102.065,0,139.731,0,139.731c.016,0,30.269-23.136,43.906-35.911-1.959.486-3.887,1.019-5.831,1.552-2.477.674-5,1.332-7.493,1.959.564-.376,1.144-.752,1.709-1.082,1.426-.815,2.9-1.52,4.326-2.351,1.615-.94,3.182-2.085,4.765-3.182a109.538,109.538,0,0,1,11.631-7.1A101.5,101.5,0,0,0,68.031,66.06c-.3.266-.58.5-.878.768A51.082,51.082,0,0,1,61.322,71.5,45.355,45.355,0,0,1,55.4,74.571c-2.492,1.144-5.016,2.336-7.477,3.668C50.756,75.4,53.688,72.721,56.682,70.26Z" transform="translate(463.22 310.42)" fill="url(#linear-gradient-12)"/>
          <path id="Vector-21" data-name="Vector" d="M53.562,88.626c2.038-4.969,2.963-7.477,4.624-12.587,2.79-2.712,5.659-5.392,8.543-8.01,3.041-2.759,6.16-5.549,9.248-8.339,3.072-2.774,6.176-5.612,9.248-8.464s6.129-5.784,9.17-8.668c-3.119,2.743-6.223,5.518-9.358,8.229-3.135,2.727-6.286,5.423-9.421,8.073-3.151,2.665-6.333,5.345-9.452,8.01-2.351,2.006-4.7,4.075-7.038,6.176a150.635,150.635,0,0,0,3.966-15.33,89.7,89.7,0,0,0,8.261-8.292,92.243,92.243,0,0,0,7.508-9.985,96.241,96.241,0,0,0,6.38-11.4A91.955,91.955,0,0,0,90.227,15.33a89.3,89.3,0,0,1-5.3,12.415,94.043,94.043,0,0,1-6.615,11.019,92.16,92.16,0,0,1-7.665,9.562A83.981,83.981,0,0,1,63.61,55.1c.941-4.749,1.317-7.148,1.928-11.976a1.666,1.666,0,0,0,.172.141A107.745,107.745,0,0,0,70.3,33.356a105.414,105.414,0,0,0,3.684-10.581A161.543,161.543,0,0,0,78.408,0,156.9,156.9,0,0,1,73.3,22.4a98.9,98.9,0,0,1-3.966,10.283q-1.575,3.55-3.37,6.881a227.616,227.616,0,0,0,.408-33.34,223.5,223.5,0,0,1-1.317,33.5c-1.693-5.737-3.307-11.537-5.11-17.227-2.053-6.505-4.326-12.947-6.725-19.374,2.179,6.536,4.2,13.073,6.019,19.688.909,3.323,1.74,6.709,2.586,10.095s1.662,6.787,2.571,10.2c.063-.031.11-.063.172-.094-.658,4.248-1.05,6.364-1.944,10.549a77.777,77.777,0,0,0-2.539-9.2,84.221,84.221,0,0,0-4.859-11.317,89.277,89.277,0,0,0-6.16-10.126,77.119,77.119,0,0,0-7.273-8.841,76,76,0,0,1,6.975,9.107,87.1,87.1,0,0,1,5.816,10.345,86.839,86.839,0,0,1,4.452,11.427,81.005,81.005,0,0,1,2.743,12.367A148.369,148.369,0,0,1,57.513,72.23a55.308,55.308,0,0,0-2.43-8.794,66.65,66.65,0,0,0-5.063-10.6,76.384,76.384,0,0,0-6.458-9.233,71.9,71.9,0,0,0-7.493-7.916,71.144,71.144,0,0,1,7.211,8.214,74.343,74.343,0,0,1,6.1,9.452,65.664,65.664,0,0,1,4.64,10.722,54.806,54.806,0,0,1,2.414,11.3c-1.615,4.546-2.492,6.787-4.42,11.223a42.19,42.19,0,0,0-1.881-6.458,47.851,47.851,0,0,0-4.138-8.261,60.665,60.665,0,0,0-5.267-7.163,55.058,55.058,0,0,0-6.113-6.129,57.042,57.042,0,0,1,5.831,6.427,57.112,57.112,0,0,1,4.906,7.4,50,50,0,0,1,3.7,8.4,42.3,42.3,0,0,1,1.818,8.355A189.792,189.792,0,0,1,0,154.507c1.129,1.379,1.709,2.085,2.837,3.464A192.894,192.894,0,0,0,52.732,90.585,64.591,64.591,0,0,0,67.56,84.472,82.635,82.635,0,0,0,82.468,73.891a79.848,79.848,0,0,1-15.08,9.671A63.273,63.273,0,0,1,53.562,88.626Z" transform="translate(436.556 319.141)" fill="#5148ff"/>
        </g>
      </g>
      <g id="Group-22" data-name="Group">
        <g id="Group-23" data-name="Group">
          <path id="Vector-22" data-name="Vector" d="M15.279,70.26c-2.727-2.242-5.533-4.295-8.214-6.709a58.651,58.651,0,0,1-5.314-5.471A70.076,70.076,0,0,1,.074,39.475a12.548,12.548,0,0,0,.893.925c5.11,4.844,10.957,9.515,15.863,14.515.643.658,1.27,1.4,1.912,2.147a100.414,100.414,0,0,0-7.885-12.148c-3.1-4.075-6.49-7.743-9.107-12.493-.3-.533-.58-1.1-.831-1.662C2.378,22.468,5.4,14.489,11.109,8.2c1.254,3.981,2.351,8.1,3.5,12.1.956,3.307,1.975,6.63,2.822,9.985A144.974,144.974,0,0,0,13.633,5.821a25.207,25.207,0,0,1,8.935-4.8c.815,3.166,1.536,6.411,2.179,9.64.141-3.386.235-6.8.266-10.2A22.681,22.681,0,0,1,33.87.382a32.239,32.239,0,0,1,7.07,2.508,51.751,51.751,0,0,0-1.865,11.646A47.329,47.329,0,0,1,44.325,4.63,50.329,50.329,0,0,1,51.74,9.693c-3.731,5.549-5.361,11.521-6.772,17.948a44.354,44.354,0,0,1,3.715-6.866,63.177,63.177,0,0,1,6.443-8.01,33.709,33.709,0,0,1,9.123,15.612c-.658.8-1.364,1.6-2.053,2.351-3.48,3.9-7.164,7.884-9.311,13.01A39.161,39.161,0,0,0,50.8,50.965a2.867,2.867,0,0,1-.094.392,45.011,45.011,0,0,1,10.644-13.59,35.075,35.075,0,0,1,4-3.01c.611,5.173,1.1,10.032,1.426,14.656-.5.47-1,.94-1.52,1.411C59.875,55.855,55.266,62.141,53.4,69.273c-.063.266-.141.564-.2.831,2.477-4.577,5.063-9.013,8.715-12.289a29.538,29.538,0,0,1,5.157-3.652c.282,7.007.376,13.951.282,20.973-.282.345-.564.705-.846,1.035-2.884,3.48-5.988,6.991-7.65,11.537a26.46,26.46,0,0,0-1.426,9.06l.423-.611a53.254,53.254,0,0,1,9.092-9.922c-.752,15.832,5.016,53.5,5.016,53.5-.016,0-30.269-23.136-43.906-35.911,1.959.486,3.887,1.019,5.831,1.552,2.477.674,5,1.332,7.493,1.959-.564-.376-1.144-.752-1.709-1.082-1.426-.815-2.9-1.52-4.326-2.351-1.615-.94-3.182-2.085-4.765-3.182a109.538,109.538,0,0,0-11.631-7.1A101.5,101.5,0,0,1,3.93,66.06c.3.266.58.5.878.768A51.082,51.082,0,0,0,10.639,71.5a45.355,45.355,0,0,0,5.925,3.072c2.492,1.144,5.016,2.336,7.477,3.668A118.491,118.491,0,0,0,15.279,70.26Z" transform="translate(111.456 313.539)" fill="url(#linear-gradient-13)"/>
          <path id="Vector-23" data-name="Vector" d="M40.834,88.626c-2.038-4.969-2.963-7.477-4.624-12.587-2.79-2.712-5.659-5.392-8.543-8.01-3.041-2.759-6.16-5.549-9.248-8.339-3.072-2.774-6.176-5.612-9.248-8.464S3.041,45.441,0,42.557c3.119,2.743,6.223,5.518,9.358,8.229,3.135,2.727,6.286,5.424,9.421,8.073,3.151,2.665,6.333,5.345,9.452,8.01,2.351,2.006,4.7,4.075,7.038,6.176A150.634,150.634,0,0,1,31.3,57.715a89.7,89.7,0,0,1-8.261-8.292,92.243,92.243,0,0,1-7.508-9.985,96.242,96.242,0,0,1-6.38-11.4A91.954,91.954,0,0,1,4.17,15.33a89.3,89.3,0,0,0,5.3,12.415,94.043,94.043,0,0,0,6.615,11.019,92.159,92.159,0,0,0,7.665,9.562A83.979,83.979,0,0,0,30.786,55.1c-.941-4.749-1.317-7.148-1.928-11.976a1.666,1.666,0,0,1-.172.141,107.745,107.745,0,0,1-4.593-9.907,105.415,105.415,0,0,1-3.684-10.581A161.543,161.543,0,0,1,15.989,0,156.9,156.9,0,0,0,21.1,22.4a98.9,98.9,0,0,0,3.966,10.283q1.575,3.55,3.37,6.881a227.617,227.617,0,0,1-.408-33.34,223.5,223.5,0,0,0,1.317,33.5c1.693-5.737,3.307-11.537,5.11-17.227,2.053-6.505,4.326-12.947,6.725-19.374C39,9.656,36.978,16.192,35.16,22.807c-.909,3.323-1.74,6.709-2.586,10.095S30.912,39.689,30,43.106c-.063-.031-.11-.063-.172-.094.658,4.248,1.05,6.364,1.944,10.549a77.776,77.776,0,0,1,2.539-9.2,86.225,86.225,0,0,1,4.844-11.317,89.276,89.276,0,0,1,6.16-10.126,77.119,77.119,0,0,1,7.273-8.841,76,76,0,0,0-6.975,9.107A85.877,85.877,0,0,0,35.348,44.956,81,81,0,0,0,32.6,57.323,148.37,148.37,0,0,0,36.868,72.23a55.308,55.308,0,0,1,2.43-8.794,66.65,66.65,0,0,1,5.063-10.6,76.383,76.383,0,0,1,6.458-9.233,71.9,71.9,0,0,1,7.493-7.916A71.145,71.145,0,0,0,51.1,43.905,74.343,74.343,0,0,0,45,53.357a64.337,64.337,0,0,0-4.64,10.722,54.806,54.806,0,0,0-2.414,11.3c1.615,4.546,2.492,6.787,4.42,11.223a42.19,42.19,0,0,1,1.881-6.458,48.42,48.42,0,0,1,4.138-8.261,60.665,60.665,0,0,1,5.267-7.163,55.058,55.058,0,0,1,6.113-6.129A58.074,58.074,0,0,0,49.032,72.418a50.4,50.4,0,0,0-3.7,8.386,42.3,42.3,0,0,0-1.818,8.355,189.792,189.792,0,0,0,50.866,65.333c-1.129,1.4-1.709,2.085-2.837,3.464A192.894,192.894,0,0,1,41.649,90.569,64.591,64.591,0,0,1,26.82,84.456,82.636,82.636,0,0,1,11.913,73.876a79.848,79.848,0,0,0,15.08,9.671A62.159,62.159,0,0,0,40.834,88.626Z" transform="translate(115.683 322.244)" fill="#5148ff"/>
        </g>
      </g>
      <g id="Group-24" data-name="Group">
        <g id="Group-25" data-name="Group">
          <path id="Vector-24" data-name="Vector" d="M15.279,70.26c-2.727-2.242-5.533-4.295-8.214-6.709a58.651,58.651,0,0,1-5.314-5.471A70.076,70.076,0,0,1,.074,39.475a12.548,12.548,0,0,0,.894.925c5.11,4.844,10.957,9.515,15.863,14.515.643.658,1.27,1.4,1.912,2.147a100.414,100.414,0,0,0-7.885-12.148c-3.1-4.075-6.49-7.743-9.107-12.493-.3-.533-.58-1.1-.831-1.662C2.378,22.468,5.4,14.489,11.109,8.2c1.254,3.981,2.351,8.1,3.5,12.1.956,3.307,1.975,6.63,2.822,9.985A144.974,144.974,0,0,0,13.633,5.821a25.207,25.207,0,0,1,8.935-4.8c.815,3.166,1.536,6.411,2.179,9.64.141-3.386.235-6.8.266-10.2A22.681,22.681,0,0,1,33.87.382a32.239,32.239,0,0,1,7.07,2.508,51.751,51.751,0,0,0-1.865,11.646A47.329,47.329,0,0,1,44.325,4.63,51.168,51.168,0,0,1,51.74,9.693c-3.731,5.549-5.361,11.521-6.772,17.948a44.354,44.354,0,0,1,3.715-6.866,63.177,63.177,0,0,1,6.443-8.01,33.709,33.709,0,0,1,9.123,15.612c-.658.8-1.364,1.6-2.053,2.351-3.48,3.9-7.164,7.884-9.311,13.01A39.16,39.16,0,0,0,50.8,50.965a2.867,2.867,0,0,1-.094.392,45.011,45.011,0,0,1,10.644-13.59,35.075,35.075,0,0,1,4-3.01c.611,5.173,1.1,10.032,1.426,14.656-.5.47-1,.94-1.521,1.411-5.377,5.032-9.985,11.317-11.85,18.449-.063.266-.141.564-.2.831,2.477-4.577,5.063-9.013,8.715-12.289a29.538,29.538,0,0,1,5.157-3.652c.282,7.007.376,13.951.282,20.973-.282.345-.564.705-.846,1.035-2.884,3.48-5.988,6.991-7.65,11.537a26.459,26.459,0,0,0-1.426,9.06l.423-.611a53.254,53.254,0,0,1,9.092-9.922c-.752,15.832,5.016,53.5,5.016,53.5-.016,0-30.269-23.136-43.906-35.911,1.959.486,3.887,1.019,5.831,1.552,2.477.674,5,1.332,7.493,1.959-.564-.376-1.144-.752-1.709-1.082-1.426-.815-2.9-1.52-4.326-2.351-1.615-.94-3.182-2.085-4.765-3.182a109.538,109.538,0,0,0-11.631-7.1A101.5,101.5,0,0,1,3.93,66.06c.3.266.58.5.878.768A51.082,51.082,0,0,0,10.639,71.5a45.354,45.354,0,0,0,5.925,3.072c2.492,1.144,5.016,2.336,7.477,3.668C21.2,75.4,18.273,72.721,15.279,70.26Z" transform="translate(226.449 362.209)" fill="url(#linear-gradient-14)"/>
          <path id="Vector-25" data-name="Vector" d="M40.834,88.626c-2.038-4.969-2.963-7.477-4.624-12.587-2.79-2.712-5.659-5.392-8.543-8.01-3.041-2.759-6.16-5.549-9.248-8.339-3.072-2.774-6.176-5.612-9.248-8.464S3.041,45.441,0,42.557c3.119,2.743,6.223,5.518,9.358,8.229,3.135,2.727,6.286,5.423,9.421,8.073,3.151,2.665,6.333,5.345,9.452,8.01,2.351,2.006,4.7,4.075,7.038,6.176A150.635,150.635,0,0,1,31.3,57.715a89.7,89.7,0,0,1-8.261-8.292,92.245,92.245,0,0,1-7.508-9.985,96.241,96.241,0,0,1-6.38-11.4A91.954,91.954,0,0,1,4.17,15.33a89.3,89.3,0,0,0,5.3,12.414,94.043,94.043,0,0,0,6.615,11.019,92.159,92.159,0,0,0,7.665,9.562A83.979,83.979,0,0,0,30.786,55.1c-.941-4.749-1.317-7.148-1.928-11.976a1.666,1.666,0,0,1-.172.141,107.745,107.745,0,0,1-4.593-9.906,105.415,105.415,0,0,1-3.684-10.581A161.543,161.543,0,0,1,15.989,0,156.9,156.9,0,0,0,21.1,22.4a98.9,98.9,0,0,0,3.966,10.283q1.575,3.55,3.37,6.881a227.617,227.617,0,0,1-.408-33.34,223.5,223.5,0,0,0,1.317,33.5c1.693-5.737,3.307-11.537,5.11-17.227,2.053-6.505,4.326-12.947,6.725-19.374C39,9.656,36.978,16.192,35.16,22.807c-.925,3.323-1.74,6.709-2.586,10.095S30.912,39.689,30,43.106c-.063-.031-.11-.063-.172-.094.658,4.248,1.05,6.364,1.944,10.549a77.776,77.776,0,0,1,2.539-9.2,84.221,84.221,0,0,1,4.859-11.317,89.276,89.276,0,0,1,6.16-10.126,77.119,77.119,0,0,1,7.273-8.841,76,76,0,0,0-6.976,9.107A85.877,85.877,0,0,0,35.363,44.956,81,81,0,0,0,32.62,57.323,148.369,148.369,0,0,0,36.884,72.23a55.309,55.309,0,0,1,2.43-8.794,66.649,66.649,0,0,1,5.063-10.6,76.383,76.383,0,0,1,6.458-9.233,71.9,71.9,0,0,1,7.493-7.916,71.145,71.145,0,0,0-7.211,8.214,74.342,74.342,0,0,0-6.1,9.452,65.664,65.664,0,0,0-4.64,10.722,54.806,54.806,0,0,0-2.414,11.3c1.615,4.546,2.492,6.787,4.42,11.223a42.191,42.191,0,0,1,1.881-6.458,48.419,48.419,0,0,1,4.138-8.261,60.664,60.664,0,0,1,5.267-7.163,55.058,55.058,0,0,1,6.113-6.129A58.076,58.076,0,0,0,49.048,72.418a50.4,50.4,0,0,0-3.7,8.386,42.3,42.3,0,0,0-1.818,8.355A189.792,189.792,0,0,0,94.4,154.492c-1.129,1.4-1.709,2.085-2.837,3.464A192.894,192.894,0,0,1,41.665,90.569a64.591,64.591,0,0,1-14.829-6.113A82.636,82.636,0,0,1,11.929,73.876a79.848,79.848,0,0,0,15.08,9.671A62.042,62.042,0,0,0,40.834,88.626Z" transform="translate(230.661 370.93)" fill="#5148ff"/>
        </g>
      </g>
      <g id="Group-26" data-name="Group">
        <g id="Group-27" data-name="Group">
          <path id="Vector-26" data-name="Vector" d="M66.636,82.72c3.213-2.633,6.521-5.047,9.672-7.9a67.756,67.756,0,0,0,6.254-6.442,81.591,81.591,0,0,0,1.975-21.9c-.345.376-.69.752-1.05,1.082-6.019,5.706-12.9,11.192-18.654,17.07-.752.768-1.5,1.646-2.242,2.524a117.2,117.2,0,0,1,9.28-14.3c3.652-4.8,7.634-9.107,10.706-14.7.345-.627.674-1.285.972-1.944-1.724-9.75-5.283-19.139-11.992-26.538-1.473,4.671-2.775,9.53-4.123,14.233-1.113,3.9-2.32,7.806-3.308,11.74A171.905,171.905,0,0,1,68.595,6.854a29.893,29.893,0,0,0-10.5-5.643c-.956,3.731-1.8,7.54-2.555,11.333-.157-3.981-.282-7.994-.314-12.007A26.575,26.575,0,0,0,44.8.458a36.771,36.771,0,0,0-8.324,2.947,60.8,60.8,0,0,1,2.195,13.716A53.963,53.963,0,0,0,32.479,5.474a59.118,59.118,0,0,0-8.715,5.956c4.389,6.521,6.3,13.559,7.963,21.114a52.479,52.479,0,0,0-4.373-8.073,75.54,75.54,0,0,0-7.587-9.421A39.628,39.628,0,0,0,9.045,33.423c.784.94,1.615,1.865,2.414,2.774,4.091,4.593,8.433,9.28,10.957,15.314a45.774,45.774,0,0,1,2.461,8.5,4.131,4.131,0,0,0,.11.47A52.8,52.8,0,0,0,12.462,44.489a41.01,41.01,0,0,0-4.7-3.543C7.038,47.028,6.474,52.75,6.066,58.2c.6.549,1.176,1.1,1.787,1.662C14.186,65.791,19.61,73.174,21.8,81.576c.078.313.172.658.251.972C19.14,77.171,16.1,71.936,11.8,68.1A34.583,34.583,0,0,0,5.737,63.8c-.329,8.245-.439,16.412-.329,24.672.329.408.674.831,1,1.223,3.4,4.107,7.054,8.229,9,13.574a31.242,31.242,0,0,1,1.677,10.643c-.157-.235-.345-.486-.5-.721A63.265,63.265,0,0,0,5.894,101.514C6.787,120.136,0,164.449,0,164.449c.016,0,35.614-27.212,51.65-42.244-2.3.564-4.577,1.191-6.85,1.818-2.916.8-5.878,1.567-8.809,2.3.658-.439,1.332-.878,2.006-1.27,1.677-.972,3.4-1.787,5.094-2.774,1.9-1.113,3.746-2.461,5.6-3.746a126.953,126.953,0,0,1,13.685-8.355A119.351,119.351,0,0,0,80.038,77.767c-.345.313-.69.6-1.035.909a57.839,57.839,0,0,1-6.866,5.486,53.6,53.6,0,0,1-6.96,3.621c-2.931,1.348-5.91,2.743-8.794,4.311A130.515,130.515,0,0,1,66.636,82.72Z" transform="translate(548.712 300.045)" fill="url(#linear-gradient-15)"/>
          <path id="Vector-27" data-name="Vector" d="M62.983,104.254c2.4-5.847,3.48-8.809,5.439-14.8,3.292-3.2,6.662-6.348,10.048-9.421,3.574-3.245,7.242-6.521,10.879-9.812,3.621-3.276,7.273-6.6,10.879-9.969,3.605-3.354,7.195-6.8,10.8-10.2-3.668,3.229-7.32,6.489-11,9.687s-7.4,6.38-11.1,9.5c-3.7,3.135-7.446,6.286-11.114,9.421-2.775,2.367-5.549,4.8-8.277,7.257a174.049,174.049,0,0,0,4.656-18.042,103.822,103.822,0,0,0,9.7-9.765,110.976,110.976,0,0,0,8.841-11.74,112.8,112.8,0,0,0,7.508-13.4,108.64,108.64,0,0,0,5.878-14.954A107.392,107.392,0,0,1,99.9,32.619a110.018,110.018,0,0,1-7.791,12.963,110.226,110.226,0,0,1-9.013,11.255A96.263,96.263,0,0,1,74.818,64.8c1.1-5.6,1.552-8.417,2.273-14.092a1.879,1.879,0,0,1,.188.172c1.959-3.746,3.793-7.634,5.408-11.646a119.015,119.015,0,0,0,4.326-12.446A188.14,188.14,0,0,0,92.217,0a186.8,186.8,0,0,1-6,26.349,113.594,113.594,0,0,1-4.671,12.1c-1.223,2.774-2.571,5.486-3.966,8.1a264.167,264.167,0,0,0,.47-39.219,264.733,264.733,0,0,1-1.536,39.407c-1.991-6.756-3.9-13.574-6-20.268-2.414-7.649-5.094-15.236-7.916-22.791,2.555,7.7,4.938,15.393,7.085,23.167,1.082,3.9,2.053,7.9,3.041,11.882,1,3.981,1.959,7.994,3.025,11.991.078-.047.125-.063.2-.11-.768,5-1.223,7.477-2.289,12.414a91.4,91.4,0,0,0-2.994-10.816,101.382,101.382,0,0,0-5.706-13.324A99.231,99.231,0,0,0,57.7,26.976a91.194,91.194,0,0,0-8.559-10.392A91.652,91.652,0,0,1,57.356,27.29,101.719,101.719,0,0,1,64.19,39.454,101.828,101.828,0,0,1,69.426,52.9a97.519,97.519,0,0,1,3.229,14.546,172.156,172.156,0,0,1-5.016,17.525A65.148,65.148,0,0,0,64.77,74.628a78.85,78.85,0,0,0-5.957-12.477,87.025,87.025,0,0,0-7.6-10.847,85.832,85.832,0,0,0-8.81-9.327,83.613,83.613,0,0,1,8.48,9.656,88.271,88.271,0,0,1,7.179,11.129,78.861,78.861,0,0,1,5.471,12.6,64.171,64.171,0,0,1,2.837,13.292c-1.9,5.345-2.947,7.994-5.189,13.2a47.841,47.841,0,0,0-2.21-7.587,57.562,57.562,0,0,0-4.859-9.734,68.521,68.521,0,0,0-6.192-8.417,66.5,66.5,0,0,0-7.195-7.21,65.606,65.606,0,0,1,6.85,7.555,67.493,67.493,0,0,1,5.768,8.7A58.246,58.246,0,0,1,57.7,95.037a50.013,50.013,0,0,1,2.148,9.828A222.882,222.882,0,0,1,0,181.719c1.332,1.63,2.006,2.445,3.339,4.075a227.068,227.068,0,0,0,58.7-79.284,75.2,75.2,0,0,0,17.431-7.195A96.673,96.673,0,0,0,97.014,86.87,93.359,93.359,0,0,1,79.27,98.25,72.514,72.514,0,0,1,62.983,104.254Z" transform="translate(517.331 310.378)" fill="#5148ff"/>
        </g>
      </g>
      <g id="Group-28" data-name="Group">
        <g id="Group-29" data-name="Group">
          <path id="Vector-28" data-name="Vector" d="M109.565,167.413H61.3c0-25.864-17.039-51.367-29.767-73.108-.408-.69-.815-1.4-1.223-2.085C19.338,73.254,5.073,55.667.857,33.612-.366,27.2-.617,20.257,2.393,14.458c3.2-6.192,9.7-10.142,16.459-11.882C99.219-18.021,116.039,89.305,109.565,167.413Z" transform="translate(385.742 331.189)" fill="url(#linear-gradient-16)"/>
          <g id="Group-30" data-name="Group">
            <path id="Vector-29" data-name="Vector" d="M53.3,141.88H51.235a225.452,225.452,0,0,0-3.088-32.651,243.759,243.759,0,0,0-9.562-38.356A218.412,218.412,0,0,0,.6,1.919C-.776.163.447-.762,1.889.79a185.627,185.627,0,0,1,40.85,68.687,205.865,205.865,0,0,1,9,39.25A192.2,192.2,0,0,1,53.3,141.88Z" transform="translate(421.249 356.723)" fill="#5148ff"/>
          </g>
        </g>
        <g id="Group-31" data-name="Group">
          <path id="Vector-30" data-name="Vector" d="M41.974,195.706H2.284C-4.19,136-2.419-13.679,84.046,1.008,150.384,12.279,43.682,98.522,41.974,195.706Z" transform="translate(498.18 302.896)" fill="url(#linear-gradient-17)"/>
          <g id="Group-32" data-name="Group">
            <path id="Vector-31" data-name="Vector" d="M44.541,2.062A106.444,106.444,0,0,0,31.17,21.389a149.522,149.522,0,0,0-9.734,21.4,214.844,214.844,0,0,0-7.023,22.493c-1.944,7.618-3.605,15.3-4.938,23.073A432.1,432.1,0,0,0,4.037,135.3c-.6,9.483-.988,18.982-1.082,28.466H.259c-.361-9.546-.329-19.108,0-28.654A349.085,349.085,0,0,1,5.149,87.552c1.364-7.869,3.135-15.675,5.236-23.371a191.888,191.888,0,0,1,7.65-22.744c1.442-3.731,3.182-7.352,4.891-10.972,1.865-3.558,3.668-7.116,5.831-10.5A103.024,103.024,0,0,1,43.334.933C45.027-.854,46.14.149,44.541,2.062Z" transform="translate(517.323 334.823)" fill="#5148ff"/>
          </g>
        </g>
        <g id="Group-33" data-name="Group">
          <path id="Vector-32" data-name="Vector" d="M25.877,53.06H.671S-5.975-.047,22.554,0C48.512.016,31.176,32.823,25.877,53.06Z" transform="translate(541.269 445.543)" fill="url(#linear-gradient-18)"/>
          <g id="Group-34" data-name="Group">
            <path id="Vector-33" data-name="Vector" d="M8.574.865C4.828,12.809,3.245,25.318,2.351,37.779c-.047,1-.11,2.038-.157,3.041H0c.031-1.082.094-2.132.157-3.2C1.082,25.02,3.182,12.386,7.806.567,8.2-.358,8.888-.075,8.574.865Z" transform="translate(551.064 457.782)" fill="#5148ff"/>
          </g>
        </g>
        <g id="Group-35" data-name="Group">
          <path id="Vector-34" data-name="Vector" d="M57.073,86.807H24.735c0-41.46-46.9-82.168-11.537-86.572C25.785-1.333,34.751,5.109,41.147,15.126,57.073,40,57.073,86.807,57.073,86.807Z" transform="translate(372.649 411.795)" fill="url(#linear-gradient-19)"/>
          <g id="Group-36" data-name="Group">
            <path id="Vector-35" data-name="Vector" d="M24.044,69.36H21.975c-.752-6.286-1.709-12.587-2.9-18.794A197.965,197.965,0,0,0,12.1,24.922c-.784-2.085-1.662-4.122-2.477-6.16-.423-1.019-.8-2.069-1.27-3.072L6.864,12.727,5.391,9.733A29.062,29.062,0,0,0,3.807,6.818L.327,1.143C-.394-.017.186-.5,1,.689L4.779,6.238a22.658,22.658,0,0,1,1.709,2.9l1.63,2.947,1.615,2.963c.517.988.925,2.038,1.4,3.057.878,2.069,1.834,4.107,2.665,6.192a168.141,168.141,0,0,1,7.446,25.864Q23.072,59.681,24.044,69.36Z" transform="translate(393.294 429.242)" fill="#5148ff"/>
          </g>
        </g>
        <g id="Group-37" data-name="Group">
          <path id="Vector-36" data-name="Vector" d="M23.544,112.443H0C0,50.088,23.873-.667,57.371.007,90.885.649,26.209,68.992,23.544,112.443Z" transform="translate(570.485 386.16)" fill="url(#linear-gradient-16)"/>
          <g id="Group-38" data-name="Group">
            <path id="Vector-37" data-name="Vector" d="M35.316,1.267a100.6,100.6,0,0,0-9.248,13.339c-.674,1.16-1.379,2.32-2.053,3.5l-1.9,3.59c-1.332,2.367-2.4,4.859-3.574,7.3A193.5,193.5,0,0,0,7.759,59.578,234.348,234.348,0,0,0,1.8,95.552H0A201.484,201.484,0,0,1,5.612,59.014,175.2,175.2,0,0,1,16.882,28.2c1.223-2.445,2.383-4.938,3.778-7.273l2.022-3.574c.705-1.191,1.442-2.336,2.179-3.48A98.882,98.882,0,0,1,34.674.719C35.865-.535,36.429-.018,35.316,1.267Z" transform="translate(581.051 403.035)" fill="#5148ff"/>
          </g>
        </g>
      </g>
      <g id="Group-39" data-name="Group">
        <path id="Vector-38" data-name="Vector" d="M109.565,167.413H61.3c0-25.864-17.039-51.367-29.767-73.108-.408-.69-.815-1.4-1.223-2.085C19.338,73.254,5.073,55.667.857,33.612-.366,27.2-.617,20.257,2.393,14.458c3.2-6.192,9.7-10.142,16.459-11.882C99.219-18.021,116.023,89.305,109.565,167.413Z" transform="translate(37.814 331.189)" fill="url(#linear-gradient-16)"/>
        <g id="Group-40" data-name="Group">
          <path id="Vector-39" data-name="Vector" d="M53.3,141.879H51.235a225.452,225.452,0,0,0-3.088-32.651,243.759,243.759,0,0,0-9.562-38.356A218.412,218.412,0,0,0,.6,1.919C-.776.163.447-.762,1.889.79a185.627,185.627,0,0,1,40.85,68.687,205.865,205.865,0,0,1,9,39.25A192.2,192.2,0,0,1,53.3,141.879Z" transform="translate(73.321 356.723)" fill="#5148ff"/>
        </g>
      </g>
      <g id="Group-41" data-name="Group">
        <path id="Vector-40" data-name="Vector" d="M41.974,195.706H2.284C-4.19,136-2.419-13.679,84.046,1.008,150.384,12.279,43.666,98.522,41.974,195.706Z" transform="translate(150.252 302.896)" fill="url(#linear-gradient-16)"/>
        <g id="Group-42" data-name="Group">
          <path id="Vector-41" data-name="Vector" d="M44.541,2.062A106.444,106.444,0,0,0,31.17,21.389a149.522,149.522,0,0,0-9.734,21.4,214.844,214.844,0,0,0-7.023,22.493c-1.944,7.618-3.605,15.3-4.938,23.073A432.1,432.1,0,0,0,4.037,135.3c-.6,9.483-.988,18.982-1.082,28.466H.259c-.361-9.546-.329-19.108,0-28.654A349.085,349.085,0,0,1,5.149,87.552c1.364-7.869,3.135-15.675,5.236-23.371a191.888,191.888,0,0,1,7.65-22.744c1.442-3.731,3.182-7.352,4.891-10.972,1.865-3.558,3.668-7.116,5.831-10.5A103.023,103.023,0,0,1,43.334.933C45.043-.854,46.156.149,44.541,2.062Z" transform="translate(169.379 334.823)" fill="#5148ff"/>
        </g>
      </g>
      <g id="Group-43" data-name="Group">
        <path id="Vector-42" data-name="Vector" d="M25.877,53.06H.671S-5.975-.047,22.554,0C48.512.016,31.176,32.823,25.877,53.06Z" transform="translate(193.341 445.543)" fill="url(#linear-gradient-23)"/>
        <g id="Group-44" data-name="Group">
          <path id="Vector-43" data-name="Vector" d="M8.574.865C4.828,12.809,3.245,25.318,2.351,37.779c-.047,1-.11,2.038-.157,3.041H0c.031-1.082.094-2.132.157-3.2C1.082,25.02,3.182,12.386,7.806.567,8.2-.358,8.888-.075,8.574.865Z" transform="translate(203.136 457.782)" fill="#5148ff"/>
        </g>
      </g>
      <g id="Group-45" data-name="Group">
        <path id="Vector-44" data-name="Vector" d="M57.073,86.807H24.735c0-41.46-46.9-82.168-11.537-86.572C25.785-1.333,34.751,5.109,41.147,15.126,57.073,40,57.073,86.807,57.073,86.807Z" transform="translate(37.81 411.795)" fill="url(#linear-gradient-23)"/>
        <g id="Group-46" data-name="Group">
          <path id="Vector-45" data-name="Vector" d="M24.044,69.36H21.975c-.752-6.286-1.709-12.587-2.9-18.794A197.965,197.965,0,0,0,12.1,24.922c-.784-2.085-1.662-4.122-2.477-6.16-.423-1.019-.8-2.069-1.27-3.072L6.864,12.727,5.391,9.733A29.062,29.062,0,0,0,3.807,6.818L.327,1.143C-.394-.017.186-.5,1,.689L4.779,6.238a22.658,22.658,0,0,1,1.709,2.9l1.63,2.947,1.615,2.963c.517.988.925,2.038,1.4,3.057.878,2.069,1.834,4.107,2.665,6.192a168.141,168.141,0,0,1,7.446,25.864Q23.049,59.681,24.044,69.36Z" transform="translate(58.47 429.242)" fill="#5148ff"/>
        </g>
      </g>
      <g id="Group-47" data-name="Group">
        <path id="Vector-46" data-name="Vector" d="M23.544,112.443H0C0,50.088,23.873-.667,57.371.007,90.9.649,26.225,68.992,23.544,112.443Z" transform="translate(222.542 386.16)" fill="url(#linear-gradient-17)"/>
        <g id="Group-48" data-name="Group">
          <path id="Vector-47" data-name="Vector" d="M35.316,1.267a100.6,100.6,0,0,0-9.248,13.339c-.674,1.16-1.379,2.32-2.053,3.5l-1.9,3.59c-1.332,2.367-2.4,4.859-3.574,7.3A193.5,193.5,0,0,0,7.759,59.578,234.348,234.348,0,0,0,1.8,95.552H0A201.483,201.483,0,0,1,5.612,59.014,176.459,176.459,0,0,1,16.882,28.2c1.223-2.445,2.383-4.938,3.778-7.273l2.022-3.574c.705-1.191,1.442-2.336,2.179-3.48A98.882,98.882,0,0,1,34.674.719C35.865-.535,36.429-.018,35.316,1.267Z" transform="translate(233.107 403.035)" fill="#5148ff"/>
        </g>
      </g>
    </g>
    <g id="Group-49" data-name="Group">
      <g id="Group-50" data-name="Group">
        <path id="Vector-48" data-name="Vector" d="M23.764,70.979c15.55-2.963,26.773,8.715,27.51,9.452.69-2.4,7.461-24.437,29.454-32.243a46.749,46.749,0,0,1,30.363,0,21.7,21.7,0,0,1,26.6-28.5,42.9,42.9,0,0,1,77.828,13.277,21.574,21.574,0,0,1,38.969,5.69,39.755,39.755,0,0,1,67.043,16.8A40.5,40.5,0,0,1,358.65,48.3c19.312,6.082,31.476,26.585,27.275,47.322H0C2.336,83.064,11.913,73.2,23.764,70.979Z" transform="translate(28.153 404.706)" fill="url(#linear-gradient-26)"/>
      </g>
      <g id="Group-51" data-name="Group">
        <path id="Vector-49" data-name="Vector" d="M23.748,70.979c15.55-2.963,26.773,8.715,27.51,9.452.69-2.4,7.461-24.437,29.454-32.243a46.749,46.749,0,0,1,30.363,0,21.7,21.7,0,0,1,26.6-28.5A42.9,42.9,0,0,1,215.5,32.967a21.574,21.574,0,0,1,38.969,5.69,39.755,39.755,0,0,1,67.043,16.8A40.5,40.5,0,0,1,358.634,48.3c19.312,6.082,31.476,26.585,27.275,47.322H0C2.336,83.049,11.9,73.2,23.748,70.979Z" transform="translate(246.556 410.02)" fill="url(#linear-gradient-27)"/>
      </g>
    </g>
    <path id="Vector-50" data-name="Vector" d="M428.185,36.946c0,20.4-95.853,36.946-214.093,36.946S0,57.35,0,36.946,95.853,0,214.093,0,428.185,16.541,428.185,36.946Z" transform="translate(111.78 491.627)" fill="#e6f3f9"/>
    <g id="Group-52" data-name="Group">
      <path id="Vector-51" data-name="Vector" d="M205.362.157A2,2,0,0,0,204.578,0a2.237,2.237,0,0,0-1.223.376L179.2,16.333l-13.59-1.442a16.385,16.385,0,0,0-13.543,4.953l-2.508,2.618L70.523,65.082S52.826,37.134,33.592,6.74L0,29.955C11.365,49.36,42.856,100.006,63.986,102.8c1.693-.063,3.276-.078,4.8,0,30.269-3.448,88.706-66.1,88.706-66.1l22.259-4.906L206.177,3.731A2.194,2.194,0,0,0,205.362.157Z" transform="translate(425.928 332.151)" fill="#ffc8af"/>
      <path id="Vector-52" data-name="Vector" d="M142.3,63.185c-8.747,3.213-23.7,7.712-41.414,12.681C82.593,81.008,61.369,86.651,40.959,91.949Q19.116,79.37,0,68.719C30.1,51.962,55.349,38.7,76.6,28.466,116.107,9.436,141.72.925,158.775.031h.517A19.583,19.583,0,0,0,163.979,0c11.741.533,18.779,5.345,23.591,13.136C197.289,28.873,179.153,49.58,142.3,63.185Z" transform="translate(330.748 434.946)" fill="#f4b49a"/>
      <path id="Vector-53" data-name="Vector" d="M0,.053c1.693-.063,3.276-.078,4.8,0a20.531,20.531,0,0,1-4.7.016A.17.17,0,0,1,0,.053Z" transform="translate(489.946 434.909)"/>
      <path id="Vector-54" data-name="Vector" d="M.251.016H0A.587.587,0,0,1,.157,0,.169.169,0,0,0,.251.016Z" transform="translate(489.789 434.962)"/>
      <path id="Vector-55" data-name="Vector" d="M131.077,153.9,97.484,177.11,37.213,105.539c2.712-20,4.734-39.172,3.5-56.727C38.53,18.246,16.82,5.392,0,0,0,0,33.655,6.207,50.443,27.682a41.721,41.721,0,0,1,2.884,4.091C60.773,43.764,80.007,74.252,131.077,153.9Z" transform="translate(361.628 236.299)" fill="url(#linear-gradient-28)"/>
      <g id="Group-53" data-name="Group">
        <path id="Vector-56" data-name="Vector" d="M49.941.065C32.667.927,11.082,7.683,11.082,7.683a17.852,17.852,0,0,1,5.3,4.7l-6.3,1.16L0,22.81C3.323,28.891,14.28,31.9,32.981,31.9c14.28,0,29.8-2.508,34.047-12.462C72.216,7.244,67.216-.813,49.941.065Z" transform="translate(366.691 523.617)" fill="url(#linear-gradient-29)"/>
        <path id="Vector-57" data-name="Vector" d="M19.032.065C36.306.927,57.891,7.683,57.891,7.683a17.852,17.852,0,0,0-5.3,4.7l6.3,1.16L68.974,22.81C65.651,28.891,54.694,31.9,35.993,31.9c-14.28,0-29.8-2.508-34.047-12.462C-3.242,7.244,1.774-.813,19.032.065Z" transform="translate(225.815 523.617)" fill="url(#linear-gradient-30)"/>
      </g>
      <path id="Vector-58" data-name="Vector" d="M181.1,119.485a9.065,9.065,0,0,1-.094,2.571c-.627,3.778-1.944,6.6-.6,10.377.925,2.586,2.257,5.047,2.727,7.759.533,3.072-.658,5.674-1.552,8.5-.329,1.019-3.37,8.794-3.041,9.2-16.788-21.49-50.443-27.682-50.443-27.682-2.618-.831-5.126-1.5-7.414-2.006a75.411,75.411,0,0,0-12.54-1.85v-11.1c11.662-7.163,19.955-24.892,19.955-41.413,0-9.421-2.7-16.866-7.195-22.243-6.85-4.264-16.146-1.05-19.719,3.7-4.154,5.565-5.753,14.5-23.842,14.139-7.211-.157-10.2,6.129-10.142,13.825,2.4,13.433,9.625,26.208,19.092,31.992v11.1a75.411,75.411,0,0,0-12.54,1.85c-2.289.5-4.8,1.176-7.414,2.006,0,0-37.887,6.975-53.327,31.789-1.285,2.069-2.947,4.7-4.875,7.79,1.27-2.038-3.809-10.079-4.687-12.336-.862-2.194-2.336-4.358-2.978-6.646-2.727-9.718,6.975-18.731,9.938-27.478,1.8-5.3-1.254-12.352,2.728-16.945,2.633-3.041,6.881-4.655,9.781-7.493a21.964,21.964,0,0,0,6.129-11.709c.784-4.326.047-9.044,2.053-12.963,2.1-4.122,6.646-6.286,10.016-9.452,6.8-6.411,5.863-13.966,6.223-22.384C48.209,22.724,62.975,8.632,80.829,2.832c10.894-3.543,23.45-4.749,33.294,2.3,1.082.784,1.991,2.289,3.088,2.916,1.16.643,2.179-.047,3.715-.2,10.863-1.16,18.9,10.581,21.726,19.625,3.4,10.91-.752,23.214,9.17,30.864,6.4,4.938,1.458,11.223,4.326,17.43,2.759,5.972,13.167,3.9,16.271,11.192,3.245,7.634-3.511,16.631,2.351,23.622C177.514,113.795,180.681,115.644,181.1,119.485Z" transform="translate(233.522 106.124)" fill="url(#linear-gradient-31)"/>
      <path id="Vector-59" data-name="Vector" d="M143.566,50.818c1.254,17.556-.784,36.711-3.5,56.727-4.734,35.347-11.537,73.374-5.737,109.9-18.967,3.887-39.345,6.881-62.372,6.881s-43.389-3.01-62.356-6.881c5.816-36.522-.988-74.534-5.737-109.9-2.712-20-4.734-39.172-3.5-56.727C2.552,20.252,24.262,7.4,41.081,2.006,43.7,1.176,46.207.5,48.5,0c.329,6.427,3.276,21.475,23.45,21.49h.031C92.151,21.475,95.1,6.442,95.427,0c2.289.5,4.8,1.176,7.414,2.006C119.677,7.383,141.372,20.236,143.566,50.818Z" transform="translate(258.771 234.308)" fill="url(#linear-gradient-32)"/>
      <path id="Vector-60" data-name="Vector" d="M221.194,16.756C255.319,9.8,284.976.063,317.612,0c-26.24,1.379-72.686,20.769-158.775,68.687C72.686,20.738,26.272,1.364,0,0,32.667.031,62.341,9.781,96.466,16.756c18.967,3.887,39.329,6.881,62.356,6.881S202.227,20.628,221.194,16.756Z" transform="translate(171.911 434.978)" fill="url(#linear-gradient-33)"/>
      <path id="Vector-61" data-name="Vector" d="M244.9,107.263c-1.066,3.934-4.185,7.054-11.553,5.847-.831-.141-1.27-.266-1.27-.266s-17.478-4.264-41.9-10.424c-12.352-3.135-26.444-6.725-40.944-10.471-20.409-5.3-41.665-10.941-59.942-16.082C71.566,70.929,56.612,66.414,47.85,63.185,11,49.58-7.123,28.873,2.6,13.136,7.408,5.345,14.461.533,26.186,0a19.45,19.45,0,0,0,4.671.031h.5c17.086.862,42.684,9.389,82.217,28.434C134.816,38.7,160.085,51.947,190.2,68.719q19.116,10.651,40.959,23.23,3.833,2.21,7.759,4.483C238.915,96.447,246.722,100.664,244.9,107.263Z" transform="translate(140.551 434.931)" fill="#ffc8af"/>
      <path id="Vector-62" data-name="Vector" d="M53.72,2c4.5,5.376,7.195,12.822,7.195,22.243,0,16.521-8.292,34.265-19.955,41.413A20.67,20.67,0,0,1,30.019,68.95a20.7,20.7,0,0,1-10.926-3.292C9.641,59.874,2.4,47.1,0,33.665V33.65c-.063-7.681,2.931-13.966,10.142-13.81,18.089.376,19.688-8.574,23.842-14.139C37.575.936,46.886-2.277,53.72,2Z" transform="translate(300.698 155.703)" fill="#ffc8af"/>
      <path id="Vector-63" data-name="Vector" d="M46.916,12.932c-.314,6.442-3.276,21.475-23.45,21.49H23.45C3.276,34.406.314,19.374,0,12.932a77.472,77.472,0,0,1,12.525-1.85V0A20.48,20.48,0,0,0,23.45,3.292,20.629,20.629,0,0,0,34.392,0V11.082A77.472,77.472,0,0,1,46.916,12.932Z" transform="translate(307.282 221.361)" fill="#ffc8af"/>
      <path id="Vector-64" data-name="Vector" d="M55,10.471C30.6,16.631,13.1,20.895,13.1,20.895s-.455.094-1.27.251C4.467,22.352,1.347,19.233.266,15.3-1.521,8.684,6.285,4.483,6.285,4.483Q10.212,2.2,14.044,0C28.56,3.762,42.667,7.352,55,10.471Z" transform="translate(275.728 526.895)" fill="#f4b49a"/>
      <path id="Vector-65" data-name="Vector" d="M173.186,6.74l-.016-.016c-19.2,30.394-36.915,58.358-36.915,58.358l-79.019-42.6v-.016l-2.508-2.618a16.4,16.4,0,0,0-13.543-4.953l-13.59,1.442L3.438.376A2.331,2.331,0,0,0,2.216,0a2,2,0,0,0-.784.157A2.217,2.217,0,0,0,.6,3.746L27.029,31.8l22.259,4.906s58.437,62.652,88.706,66.1c1.521-.078,3.1-.078,4.781,0,21.13-2.743,52.653-53.42,64.018-72.841Z" transform="translate(28.759 332.151)" fill="#ffc8af"/>
      <path id="Vector-66" data-name="Vector" d="M.235.016H0C.016.016.063.016.078,0A.648.648,0,0,1,.235.016Z" transform="translate(171.456 434.962)"/>
      <path id="Vector-67" data-name="Vector" d="M4.781.059C4.765.074,4.718.074,4.7.074H4.687A20.393,20.393,0,0,1,0,.059C1.521-.02,3.1-.02,4.781.059Z" transform="translate(166.753 434.903)"/>
      <g id="Group-54" data-name="Group">
        <path id="Vector-68" data-name="Vector" d="M65.7,63.185C56.948,66.4,41.994,70.9,24.281,75.866,23.45,45.724,6.881,32.619,0,28.466,39.5,9.436,65.115.925,82.17.031h.517A19.583,19.583,0,0,0,87.374,0c11.741.533,18.779,5.345,23.591,13.135C120.684,28.873,102.548,49.58,65.7,63.185Z" transform="translate(407.353 434.946)" fill="url(#linear-gradient-34)"/>
        <path id="Vector-69" data-name="Vector" d="M113.576,28.466c-6.881,4.138-23.45,17.242-24.281,47.4C71.566,70.929,56.612,66.414,47.85,63.185,11,49.58-7.123,28.873,2.6,13.135,7.408,5.345,14.461.533,26.186,0a19.45,19.45,0,0,0,4.671.031h.5C48.445.909,74.043,9.421,113.576,28.466Z" transform="translate(140.551 434.946)" fill="url(#linear-gradient-35)"/>
      </g>
      <path id="Vector-70" data-name="Vector" d="M0,153.9,33.592,177.11l60.271-71.571c-2.712-20-4.734-39.172-3.5-56.727C92.547,18.246,114.257,5.392,131.076,0c0,0-33.655,6.207-50.443,27.682a41.719,41.719,0,0,0-2.884,4.091C70.3,43.764,51.054,74.252,0,153.9Z" transform="translate(168.791 236.299)" fill="url(#linear-gradient-28)"/>
      <path id="Vector-71" data-name="Vector" d="M21.867,0V4.17A20.491,20.491,0,0,1,10.926,7.461,20.617,20.617,0,0,1,0,4.17V0A20.48,20.48,0,0,0,10.926,3.292,20.491,20.491,0,0,0,21.867,0Z" transform="translate(319.807 221.361)" fill="#f4b095"/>
    </g>
    <g id="Group-55" data-name="Group">
      <path id="Vector-72" data-name="Vector" d="M5.126,0,6.552,3.7l3.715,1.442L6.552,6.568l-1.426,3.7L3.7,6.568,0,5.141,3.7,3.7Z" transform="translate(222.589 87.654)" fill="#a5b7c6"/>
      <path id="Vector-73" data-name="Vector" d="M5.141,0,6.568,3.7l3.7,1.426-3.7,1.426-1.426,3.7-1.426-3.7L0,5.126,3.715,3.7Z" transform="translate(370.971 11.913)" fill="#a5b7c6"/>
      <path id="Vector-74" data-name="Vector" d="M3.276,0l.909,2.367,2.367.909-2.367.909L3.276,6.552,2.367,4.185,0,3.276l2.367-.909Z" transform="translate(252.231 25.754)" fill="#a5b7c6"/>
      <path id="Vector-75" data-name="Vector" d="M3.276,0l.909,2.367,2.367.909-2.367.909L3.276,6.552,2.367,4.185,0,3.276l2.367-.909Z" transform="translate(468.549 96.996)" fill="#a5b7c6"/>
      <path id="Vector-76" data-name="Vector" d="M3.276,0l.909,2.367,2.367.909L4.185,4.2,3.276,6.552,2.367,4.2,0,3.276l2.367-.909Z" transform="translate(157.129 77.246)" fill="#a5b7c6"/>
      <path id="Vector-77" data-name="Vector" d="M3.276,0,4.2,2.367l2.367.925L4.2,4.2,3.276,6.568,2.367,4.2,0,3.292l2.367-.925Z" transform="translate(510.12 45.488)" fill="#a5b7c6"/>
    </g>
    <g id="Group-56" data-name="Group">
      <g id="Group-57" data-name="Group">
        <g id="Group-58" data-name="Group">
          <path id="Vector-78" data-name="Vector" d="M102.03,75.9s61.933-3.182,60.585-20.174c-.925-11.772-32.526-6.082-32.573-6.176,0,0,43.624-27.368,25.786-42.071C141.61-2.99,112.814,28.391,112.689,28.313c0,0,8.872-25.55-4-28.105C90.054-3.476,80.57,43.032,80.57,43.032s2.414-28.56-12.4-26.71c-19.453,2.43-26.57,44.2-26.57,44.2S27.2,26.275,13.5,45.963A77.729,77.729,0,0,0,.423,97.486c6.725,19.092,55.616,42.448,69.332,24.829,8.433-10.831-12.446-23.841-12.446-23.841,16.9,7.054,56.023,18.81,67.4-.784C132.926,83.614,102.03,75.917,102.03,75.9Z" transform="translate(425.02 462.609)" fill="url(#linear-gradient-37)"/>
        </g>
        <path id="Vector-79" data-name="Vector" d="M70.225,100.6a72.92,72.92,0,0,1-9.781-6.74,52.542,52.542,0,0,1-6.364-6.145A328.294,328.294,0,0,0,95.337,70.741a71.017,71.017,0,0,0,10.111,6.834,77.527,77.527,0,0,0,12.838,5.549,79.988,79.988,0,0,0,14.28,3.26,78.205,78.205,0,0,0,15.409.643,76.523,76.523,0,0,1-15.189-1.144,78.354,78.354,0,0,1-13.9-3.7,76.807,76.807,0,0,1-12.368-5.878,69.712,69.712,0,0,1-9.123-6.6,301.335,301.335,0,0,0,30.159-17.18,69.207,69.207,0,0,0,13.136,3.119c2.351.408,4.812.5,7.242.69,2.477.047,4.969.11,7.461-.016a98.232,98.232,0,0,0,15.252-1.912,92.3,92.3,0,0,0,15.377-4.546,91.352,91.352,0,0,1-15.346,4.044,98.464,98.464,0,0,1-15.064,1.4c-2.445.047-4.891-.094-7.3-.219-2.367-.266-4.765-.439-7.054-.909a63.628,63.628,0,0,1-11.506-3.057A398.285,398.285,0,0,0,181.708,9.044a397.176,397.176,0,0,1-53.014,40.567,110.289,110.289,0,0,1,1.16-11.27c.69-4.326,1.489-8.668,2.477-12.947s2.022-8.574,3.182-12.806C136.657,8.355,137.88,4.154,139.228,0c-1.5,4.107-2.884,8.276-4.2,12.493-1.317,4.2-2.539,8.5-3.7,12.775-1.16,4.295-2.148,8.653-3.025,13.026a123.1,123.1,0,0,0-1.787,12.634A294.219,294.219,0,0,1,95.87,67.261a53.391,53.391,0,0,1-.94-10.753A92.452,92.452,0,0,1,96.136,43.78c.674-4.217,1.568-8.464,2.6-12.634,1.019-4.17,2.148-8.308,3.48-12.367-1.489,4.013-2.775,8.135-3.966,12.289S96,39.454,95.133,43.7a95.086,95.086,0,0,0-1.771,12.916,54.941,54.941,0,0,0,.5,11.568A324.118,324.118,0,0,1,52.716,83.8c.219-3.307.549-6.63,1.082-9.938.658-4.138,1.426-8.308,2.367-12.4.941-4.107,1.944-8.214,3.041-12.273s2.257-8.1,3.543-12.085c-1.442,3.934-2.759,7.947-4.029,11.991-1.27,4.028-2.445,8.135-3.574,12.242S53.061,69.612,52.2,73.8c-.737,3.527-1.238,7.1-1.646,10.675A325.111,325.111,0,0,1,0,95.194c.329,2.21.5,3.323.831,5.533A329.537,329.537,0,0,0,51.854,88.438a56.751,56.751,0,0,0,7.273,6.536,76.185,76.185,0,0,0,10.3,6.474,97.59,97.59,0,0,0,11.506,5.079,96.268,96.268,0,0,0,12.509,3.668,92.576,92.576,0,0,1-12.18-4.107A104.814,104.814,0,0,1,70.225,100.6Z" transform="translate(391.364 468.82)" fill="#fff"/>
      </g>
    </g>
    <g id="Group-59" data-name="Group">
      <g id="Group-60" data-name="Group">
        <g id="Group-61" data-name="Group">
          <path id="Vector-80" data-name="Vector" d="M146.361,121.931c-.705-3.746-4.342-5.988-4.734-6.223a5.878,5.878,0,0,0,4.593-6.677,8.619,8.619,0,0,0-6.552-6.8,8.557,8.557,0,0,0,1.9-9.185,11.434,11.434,0,0,0-10.612-6.96A18.776,18.776,0,0,0,127.8,65.815c-6.176-6.834-15.315-6.176-15.863-6.129A12.971,12.971,0,0,0,104.414,46.8a11.989,11.989,0,0,0-12.76,1.881A15.527,15.527,0,0,0,84.71,33.117c-5.988-3.637-12.289-.972-12.7-.784A24.415,24.415,0,0,0,60.508,13.68a19.454,19.454,0,0,0-15.393-1.9c-.266-.784-2.4-7.132-8.135-10.3C32.041-1.243,23.059-.4,20.943,5.56c-3.527-.8-10.455.94-12.963,6.019C5.8,15.968,6.318,22.411,9.391,28.038,2.023,29.559-1.9,38.117.91,47.929,3.5,57.005,11.3,64.764,19.078,66.1c-.486.611-4.467,5.659-1.63,14.264A26.718,26.718,0,0,0,32.073,96.083c-.266.784-2.571,7.7,2.994,16.255,4.42,6.787,12.086,11.631,19.108,12.226,1.082,6.881,6.411,14.186,13.653,18.449,7.947,4.655,16.647,4.8,21.6.752,2.43,6,9.609,10.612,15.377,10.439,4.75-.141,7.791-3.386,7.524-7.837,3.919,3.887,9.828,5.518,13.763,4.044,3.245-1.223,4.718-4.311,3.95-7.806,2.775,1.583,5.957,1.975,8.151.988,2.916-1.317,5.753-7.461,3.182-12.32C144.95,130.176,146.972,125.113,146.361,121.931Z" transform="translate(106.042 449.795)" fill="url(#linear-gradient-38)"/>
        </g>
        <path id="Vector-81" data-name="Vector" d="M108.677,80.992c-.157,3.746-.361,7.555-.768,11.286-.141,1.881-.423,3.746-.643,5.6-.141,1.176-.345,2.351-.533,3.527a207.333,207.333,0,0,1-25.441-18.12c.345-1.5.721-3.01,1.019-4.5.361-1.85.784-3.762,1.113-5.627.643-3.7,1.3-7.571,1.8-11.333S86.1,54.2,86.371,50.41A110.974,110.974,0,0,0,86.7,39a105.262,105.262,0,0,1-.737,11.333c-.408,3.762-.941,7.555-1.583,11.255-.643,3.684-1.442,7.493-2.242,11.1-.408,1.818-.893,3.684-1.332,5.486-.314,1.27-.705,2.571-1.066,3.84A207.775,207.775,0,0,1,58.782,62.605c.611-2.916,1.207-5.862,1.709-8.794.533-3.135,1-6.364,1.411-9.546s.721-6.411.988-9.609.47-6.411.486-9.624c-.157,3.2-.5,6.364-.893,9.515s-.846,6.317-1.411,9.436c-.549,3.119-1.16,6.27-1.85,9.311-.58,2.586-1.238,5.188-1.928,7.759a209.573,209.573,0,0,1-22.51-27.431,151.392,151.392,0,0,0,3.9-15.111c1.066-5.235,2.555-15.863,2.555-15.863S39.5,13.183,38.295,18.324A144.415,144.415,0,0,1,34.141,32.7,208.645,208.645,0,0,1,14.75,0,206.121,206.121,0,0,0,25.99,21.333a56.461,56.461,0,0,1-12.478,1.113C9.092,22.384,0,21.02,0,21.02s9.123,1.693,13.606,1.928a56.95,56.95,0,0,0,12.916-.737,209.354,209.354,0,0,0,21,30.064A66.4,66.4,0,0,1,40.4,54.251a79.262,79.262,0,0,1-8.527,1.379A91.43,91.43,0,0,1,13.9,55.8a93.758,93.758,0,0,0,18.277.784,84.617,84.617,0,0,0,8.762-.956,72.539,72.539,0,0,0,7.869-1.787A209.755,209.755,0,0,0,69.426,75.929,69.2,69.2,0,0,1,51.948,84.3,95.113,95.113,0,0,1,30.5,88.641a96.531,96.531,0,0,0,21.945-3.448,69.414,69.414,0,0,0,18.4-7.916A209.941,209.941,0,0,0,94.616,96.918a73.093,73.093,0,0,1-7.054,4.985,86.817,86.817,0,0,1-9.327,5.016,90.4,90.4,0,0,1-21.083,6.74,92.284,92.284,0,0,0,21.695-5.909,87.784,87.784,0,0,0,9.687-4.687A73.823,73.823,0,0,0,96.2,98.078c20.08,14.139,41.257,24.453,64.1,33.2.58-1.756.878-2.633,1.458-4.389-18.622-6.662-36.367-14.092-53.3-24.437.141-1.379.329-2.774.423-4.138.141-1.881.345-3.793.392-5.706.251-3.809.3-7.681.3-11.458,0-3.793-.157-7.665-.408-11.458a106,106,0,0,0-1.254-11.349,105.087,105.087,0,0,1,.831,11.317C108.818,73.421,108.818,77.246,108.677,80.992Z" transform="translate(116.31 464.18)" fill="#fff"/>
      </g>
    </g>
  </g>
</svg>
